SourceSerifMaster-BlackItalic.ufo
<glyph name="quotedbl" format="2">
  <advance width="501"/>
  <unicode hex="0022"/>
  <outline>
    <contour>
      <point x="241" y="721" type="curve" smooth="yes"/>
      <point x="199" y="721"/>
      <point x="168" y="696"/>
      <point x="158" y="637" type="curve" smooth="yes"/>
      <point x="151" y="588"/>
      <point x="152" y="526"/>
      <point x="155" y="464" type="curve" smooth="yes"/>
      <point x="158" y="380" type="line"/>
      <point x="209" y="380" type="line"/>
      <point x="269" y="521"/>
      <point x="306" y="597"/>
      <point x="306" y="649" type="curve" smooth="yes"/>
      <point x="306" y="693"/>
      <point x="283" y="721"/>
    </contour>
    <contour>
      <point x="454" y="721" type="curve" smooth="yes"/>
      <point x="412" y="721"/>
      <point x="381" y="696"/>
      <point x="371" y="637" type="curve" smooth="yes"/>
      <point x="364" y="588"/>
      <point x="365" y="526"/>
      <point x="368" y="464" type="curve" smooth="yes"/>
      <point x="371" y="380" type="line"/>
      <point x="422" y="380" type="line"/>
      <point x="482" y="521"/>
      <point x="519" y="597"/>
      <point x="519" y="649" type="curve" smooth="yes"/>
      <point x="519" y="693"/>
      <point x="496" y="721"/>
    </contour>
  </outline>
</glyph>
<glyph name="parenright" format="2">
  <advance width="396"/>
  <unicode hex="0029"/>
  <outline>
    <contour>
      <point x="191" y="712" type="curve"/>
      <point x="136" y="671" type="line"/>
      <point x="186" y="584"/>
      <point x="220" y="486"/>
      <point x="220" y="368" type="curve" smooth="yes"/>
      <point x="220" y="198"/>
      <point x="157" y="1"/>
      <point x="-15" y="-128" type="curve"/>
      <point x="22" y="-180" type="line"/>
      <point x="238" y="-67"/>
      <point x="349" y="135"/>
      <point x="349" y="343" type="curve" smooth="yes"/>
      <point x="349" y="509"/>
      <point x="275" y="630"/>
    </contour>
  </outline>
</glyph>
<glyph name="slash" format="2">
  <advance width="410"/>
  <unicode hex="002F"/>
  <outline>
    <contour>
      <point x="-77" y="-160" type="line"/>
      <point x="52" y="-160" type="line"/>
      <point x="497" y="710" type="line"/>
      <point x="369" y="710" type="line"/>
    </contour>
  </outline>
</glyph>
<glyph name="two" format="2">
  <advance width="560"/>
  <unicode hex="0032"/>
  <outline>
    <contour>
      <point x="39" y="0" type="line"/>
      <point x="480" y="0" type="line"/>
      <point x="508" y="140" type="line"/>
      <point x="144" y="140" type="line"/>
      <point x="148" y="109" type="line"/>
      <point x="259" y="185" type="line" smooth="yes"/>
      <point x="443" y="311"/>
      <point x="546" y="380"/>
      <point x="546" y="491" type="curve" smooth="yes"/>
      <point x="546" y="580"/>
      <point x="487" y="640"/>
      <point x="367" y="640" type="curve" smooth="yes"/>
      <point x="255" y="640"/>
      <point x="150" y="601"/>
      <point x="116" y="468" type="curve"/>
      <point x="119" y="418"/>
      <point x="142" y="396"/>
      <point x="179" y="396" type="curve" smooth="yes"/>
      <point x="223" y="396"/>
      <point x="252" y="423"/>
      <point x="255" y="500" type="curve" smooth="yes"/>
      <point x="259" y="613" type="line"/>
      <point x="200" y="549" type="line"/>
      <point x="235" y="569"/>
      <point x="275" y="572"/>
      <point x="309" y="572" type="curve" smooth="yes"/>
      <point x="353" y="572"/>
      <point x="382" y="546"/>
      <point x="382" y="494" type="curve" smooth="yes"/>
      <point x="382" y="412"/>
      <point x="324" y="325"/>
      <point x="200" y="216" type="curve" smooth="yes"/>
      <point x="57" y="90" type="line"/>
    </contour>
  </outline>
</glyph>
<glyph name="three" format="2">
  <advance width="560"/>
  <unicode hex="0033"/>
  <outline>
    <contour>
      <point x="251" y="-16" type="curve" smooth="yes"/>
      <point x="405" y="-16"/>
      <point x="514" y="63"/>
      <point x="514" y="168" type="curve" smooth="yes"/>
      <point x="514" y="267"/>
      <point x="458" y="311"/>
      <point x="314" y="326" type="curve"/>
      <point x="311" y="310" type="line"/>
      <point x="473" y="330"/>
      <point x="542" y="417"/>
      <point x="542" y="490" type="curve" smooth="yes"/>
      <point x="542" y="571"/>
      <point x="491" y="640"/>
      <point x="345" y="640" type="curve" smooth="yes"/>
      <point x="228" y="640"/>
      <point x="135" y="584"/>
      <point x="135" y="476" type="curve"/>
      <point x="146" y="459"/>
      <point x="166" y="446"/>
      <point x="190" y="446" type="curve" smooth="yes"/>
      <point x="224" y="446"/>
      <point x="257" y="464"/>
      <point x="265" y="517" type="curve" smooth="yes"/>
      <point x="281" y="612" type="line"/>
      <point x="220" y="566" type="line"/>
      <point x="249" y="575"/>
      <point x="282" y="580"/>
      <point x="298" y="580" type="curve" smooth="yes"/>
      <point x="357" y="580"/>
      <point x="390" y="550"/>
      <point x="390" y="479" type="curve" smooth="yes"/>
      <point x="390" y="387"/>
      <point x="319" y="342"/>
      <point x="251" y="342" type="curve" smooth="yes"/>
      <point x="227" y="342" type="line"/>
      <point x="215" y="284" type="line"/>
      <point x="243" y="284" type="line" smooth="yes"/>
      <point x="291" y="284"/>
      <point x="341" y="254"/>
      <point x="341" y="181" type="curve" smooth="yes"/>
      <point x="341" y="87"/>
      <point x="271" y="45"/>
      <point x="210" y="45" type="curve" smooth="yes"/>
      <point x="168" y="45"/>
      <point x="146" y="50"/>
      <point x="125" y="60" type="curve"/>
      <point x="189" y="11" type="line"/>
      <point x="185" y="107" type="line" smooth="yes"/>
      <point x="182" y="181"/>
      <point x="156" y="197"/>
      <point x="119" y="197" type="curve" smooth="yes"/>
      <point x="95" y="197"/>
      <point x="69" y="179"/>
      <point x="55" y="142" type="curve"/>
      <point x="55" y="45"/>
      <point x="119" y="-16"/>
    </contour>
  </outline>
</glyph>
<glyph name="four" format="2">
  <advance width="560"/>
  <unicode hex="0034"/>
  <outline>
    <contour>
      <point x="535" y="128" type="line"/>
      <point x="553" y="228" type="line"/>
      <point x="97" y="228" type="line"/>
      <point x="105" y="210" type="line"/>
      <point x="397" y="536" type="line"/>
      <point x="372" y="536" type="line"/>
      <point x="260" y="-20" type="line"/>
      <point x="407" y="-20" type="line"/>
      <point x="539" y="635" type="line"/>
      <point x="413" y="635" type="line"/>
      <point x="55" y="235" type="line"/>
      <point x="34" y="128" type="line"/>
    </contour>
  </outline>
</glyph>
<glyph name="five" format="2">
  <advance width="560"/>
  <unicode hex="0035"/>
  <outline>
    <contour>
      <point x="229" y="-16" type="curve" smooth="yes"/>
      <point x="389" y="-16"/>
      <point x="513" y="73"/>
      <point x="513" y="206" type="curve" smooth="yes"/>
      <point x="513" y="311"/>
      <point x="436" y="381"/>
      <point x="318" y="381" type="curve" smooth="yes"/>
      <point x="270" y="381"/>
      <point x="210" y="361"/>
      <point x="166" y="331" type="curve"/>
      <point x="198" y="330" type="line"/>
      <point x="269" y="592" type="line"/>
      <point x="211" y="494" type="line"/>
      <point x="535" y="494" type="line"/>
      <point x="560" y="624" type="line"/>
      <point x="216" y="624" type="line"/>
      <point x="133" y="302" type="line"/>
      <point x="170" y="284" type="line"/>
      <point x="191" y="298"/>
      <point x="215" y="309"/>
      <point x="252" y="309" type="curve" smooth="yes"/>
      <point x="312" y="309"/>
      <point x="345" y="262"/>
      <point x="345" y="194" type="curve" smooth="yes"/>
      <point x="345" y="97"/>
      <point x="281" y="44"/>
      <point x="220" y="43" type="curve" smooth="yes"/>
      <point x="193" y="43"/>
      <point x="173" y="44"/>
      <point x="159" y="46" type="curve"/>
      <point x="191" y="8" type="line"/>
      <point x="187" y="100" type="line" smooth="yes"/>
      <point x="184" y="161"/>
      <point x="174" y="191"/>
      <point x="122" y="191" type="curve" smooth="yes"/>
      <point x="93" y="191"/>
      <point x="73" y="178"/>
      <point x="59" y="152" type="curve"/>
      <point x="49" y="49"/>
      <point x="120" y="-16"/>
    </contour>
  </outline>
</glyph>
<glyph name="six" format="2">
  <advance width="560"/>
  <unicode hex="0036"/>
  <outline>
    <contour>
      <point x="272" y="-16" type="curve" smooth="yes"/>
      <point x="415" y="-16"/>
      <point x="545" y="58"/>
      <point x="545" y="210" type="curve" smooth="yes"/>
      <point x="545" y="308"/>
      <point x="487" y="379"/>
      <point x="370" y="379" type="curve" smooth="yes"/>
      <point x="306" y="379"/>
      <point x="262" y="359"/>
      <point x="203" y="313" type="curve"/>
      <point x="203" y="282" type="line"/>
      <point x="241" y="304"/>
      <point x="264" y="311"/>
      <point x="292" y="311" type="curve" smooth="yes"/>
      <point x="352" y="311"/>
      <point x="385" y="273"/>
      <point x="385" y="190" type="curve" smooth="yes"/>
      <point x="385" y="107"/>
      <point x="349" y="40"/>
      <point x="296" y="40" type="curve" smooth="yes"/>
      <point x="253" y="40"/>
      <point x="223" y="67"/>
      <point x="223" y="170" type="curve" smooth="yes"/>
      <point x="223" y="380"/>
      <point x="344" y="546"/>
      <point x="583" y="590" type="curve"/>
      <point x="577" y="640" type="line"/>
      <point x="313" y="627"/>
      <point x="60" y="446"/>
      <point x="60" y="199" type="curve" smooth="yes"/>
      <point x="60" y="61"/>
      <point x="147" y="-16"/>
    </contour>
  </outline>
</glyph>
<glyph name="seven" format="2">
  <advance width="560"/>
  <unicode hex="0037"/>
  <outline>
    <contour>
      <point x="57" y="13" type="line"/>
      <point x="74" y="0" type="line"/>
      <point x="228" y="0" type="line"/>
      <point x="559" y="537" type="line"/>
      <point x="577" y="624" type="line"/>
      <point x="138" y="624" type="line"/>
      <point x="111" y="494" type="line"/>
      <point x="499" y="494" type="line"/>
      <point x="478" y="534" type="line"/>
    </contour>
  </outline>
</glyph>
<glyph name="eight" format="2">
  <advance width="560"/>
  <unicode hex="0038"/>
  <outline>
    <contour>
      <point x="254" y="-18" type="curve" smooth="yes"/>
      <point x="414" y="-18"/>
      <point x="510" y="73"/>
      <point x="510" y="180" type="curve" smooth="yes"/>
      <point x="510" y="252"/>
      <point x="481" y="294"/>
      <point x="392" y="362" type="curve" smooth="yes"/>
      <point x="291" y="440"/>
      <point x="267" y="465"/>
      <point x="267" y="507" type="curve" smooth="yes"/>
      <point x="267" y="547"/>
      <point x="294" y="582"/>
      <point x="350" y="582" type="curve" smooth="yes"/>
      <point x="392" y="582"/>
      <point x="429" y="562"/>
      <point x="429" y="511" type="curve" smooth="yes"/>
      <point x="429" y="462"/>
      <point x="419" y="416"/>
      <point x="332" y="356" type="curve"/>
      <point x="358" y="336" type="line"/>
      <point x="481" y="387"/>
      <point x="540" y="443"/>
      <point x="540" y="520" type="curve" smooth="yes"/>
      <point x="540" y="575"/>
      <point x="477" y="640"/>
      <point x="351" y="640" type="curve" smooth="yes"/>
      <point x="222" y="640"/>
      <point x="123" y="552"/>
      <point x="123" y="447" type="curve" smooth="yes"/>
      <point x="123" y="372"/>
      <point x="167" y="327"/>
      <point x="236" y="277" type="curve" smooth="yes"/>
      <point x="323" y="210"/>
      <point x="354" y="183"/>
      <point x="354" y="134" type="curve" smooth="yes"/>
      <point x="354" y="78"/>
      <point x="321" y="43"/>
      <point x="267" y="43" type="curve" smooth="yes"/>
      <point x="208" y="43"/>
      <point x="177" y="71"/>
      <point x="177" y="126" type="curve" smooth="yes"/>
      <point x="177" y="189"/>
      <point x="205" y="236"/>
      <point x="294" y="291" type="curve"/>
      <point x="268" y="313" type="line"/>
      <point x="132" y="258"/>
      <point x="58" y="201"/>
      <point x="58" y="111" type="curve" smooth="yes"/>
      <point x="58" y="42"/>
      <point x="130" y="-18"/>
    </contour>
  </outline>
</glyph>
<glyph name="nine" format="2">
  <advance width="560"/>
  <unicode hex="0039"/>
  <outline>
    <contour>
      <point x="71" y="30" type="curve"/>
      <point x="80" y="-20" type="line"/>
      <point x="349" y="17"/>
      <point x="562" y="201"/>
      <point x="562" y="418" type="curve" smooth="yes"/>
      <point x="562" y="562"/>
      <point x="482" y="640"/>
      <point x="354" y="640" type="curve" smooth="yes"/>
      <point x="207" y="640"/>
      <point x="84" y="530"/>
      <point x="84" y="397" type="curve" smooth="yes"/>
      <point x="84" y="297"/>
      <point x="144" y="232"/>
      <point x="252" y="232" type="curve" smooth="yes"/>
      <point x="305" y="232"/>
      <point x="373" y="260"/>
      <point x="416" y="300" type="curve"/>
      <point x="409" y="325" type="line"/>
      <point x="376" y="304"/>
      <point x="347" y="295"/>
      <point x="318" y="295" type="curve" smooth="yes"/>
      <point x="267" y="295"/>
      <point x="236" y="332"/>
      <point x="236" y="406" type="curve" smooth="yes"/>
      <point x="236" y="506"/>
      <point x="299" y="586"/>
      <point x="348" y="586" type="curve" smooth="yes"/>
      <point x="387" y="586"/>
      <point x="406" y="560"/>
      <point x="406" y="470" type="curve" smooth="yes"/>
      <point x="406" y="239"/>
      <point x="304" y="93"/>
    </contour>
  </outline>
</glyph>
<glyph name="colon" format="2">
  <advance width="338"/>
  <unicode hex="003A"/>
  <outline>
    <contour>
      <point x="132" y="-16" type="curve" smooth="yes"/>
      <point x="189" y="-16"/>
      <point x="240" y="29"/>
      <point x="240" y="89" type="curve" smooth="yes"/>
      <point x="240" y="137"/>
      <point x="202" y="178"/>
      <point x="149" y="178" type="curve" smooth="yes"/>
      <point x="92" y="178"/>
      <point x="41" y="131"/>
      <point x="41" y="71" type="curve" smooth="yes"/>
      <point x="41" y="25"/>
      <point x="78" y="-16"/>
    </contour>
    <contour>
      <point x="203" y="308" type="curve" smooth="yes"/>
      <point x="260" y="308"/>
      <point x="311" y="353"/>
      <point x="311" y="413" type="curve" smooth="yes"/>
      <point x="311" y="461"/>
      <point x="273" y="502"/>
      <point x="220" y="502" type="curve" smooth="yes"/>
      <point x="163" y="502"/>
      <point x="112" y="455"/>
      <point x="112" y="395" type="curve" smooth="yes"/>
      <point x="112" y="349"/>
      <point x="149" y="308"/>
    </contour>
  </outline>
</glyph>
<glyph name="semicolon" format="2">
  <advance width="338"/>
  <unicode hex="003B"/>
  <outline>
    <contour>
      <point x="203" y="308" type="curve" smooth="yes"/>
      <point x="260" y="308"/>
      <point x="311" y="353"/>
      <point x="311" y="413" type="curve" smooth="yes"/>
      <point x="311" y="461"/>
      <point x="273" y="502"/>
      <point x="220" y="502" type="curve" smooth="yes"/>
      <point x="163" y="502"/>
      <point x="112" y="455"/>
      <point x="112" y="395" type="curve" smooth="yes"/>
      <point x="112" y="349"/>
      <point x="149" y="308"/>
    </contour>
    <contour>
      <point x="-4" y="-162" type="line"/>
      <point x="142" y="-136"/>
      <point x="221" y="-31"/>
      <point x="221" y="97" type="curve" smooth="yes"/>
      <point x="221" y="113"/>
      <point x="218" y="126"/>
      <point x="213" y="142" type="curve"/>
      <point x="190" y="166"/>
      <point x="165" y="177"/>
      <point x="131" y="177" type="curve" smooth="yes"/>
      <point x="72" y="177"/>
      <point x="32" y="127"/>
      <point x="32" y="79" type="curve" smooth="yes"/>
      <point x="32" y="50"/>
      <point x="47" y="12"/>
      <point x="86" y="-8" type="curve" smooth="yes"/>
      <point x="140" y="-36" type="line"/>
      <point x="136" y="11" type="line"/>
      <point x="105" y="-57"/>
      <point x="59" y="-94"/>
      <point x="-16" y="-116" type="curve"/>
    </contour>
  </outline>
</glyph>
<glyph name="equal" format="2">
  <advance width="550"/>
  <unicode hex="003D"/>
  <outline>
    <contour>
      <point x="523" y="166" type="line"/>
      <point x="523" y="260" type="line"/>
      <point x="63" y="260" type="line"/>
      <point x="63" y="166" type="line"/>
    </contour>
    <contour>
      <point x="523" y="380" type="line"/>
      <point x="523" y="474" type="line"/>
      <point x="63" y="474" type="line"/>
      <point x="63" y="380" type="line"/>
    </contour>
  </outline>
</glyph>
<glyph name="greater" format="2">
  <advance width="550"/>
  <unicode hex="003E"/>
  <outline>
    <contour>
      <point x="532" y="361" type="line"/>
      <point x="126" y="562" type="line"/>
      <point x="80" y="468" type="line"/>
      <point x="480" y="283" type="line"/>
      <point x="480" y="359" type="line"/>
      <point x="80" y="174" type="line"/>
      <point x="126" y="80" type="line"/>
      <point x="532" y="281" type="line"/>
    </contour>
  </outline>
</glyph>
<glyph name="Q" format="2">
  <advance width="672"/>
  <unicode hex="0051"/>
  <anchor x="411" y="682" name="aboveUC"/>
  <anchor x="299" y="-22" name="belowLC"/>
  <anchor x="581" y="669" name="hornLC"/>
  <anchor x="413" y="0" name="ogonek"/>
  <outline>
    <contour>
      <point x="438" y="-222" type="curve" smooth="yes"/>
      <point x="532" y="-222"/>
      <point x="592" y="-202"/>
      <point x="636" y="-171" type="curve"/>
      <point x="616" y="-122" type="line"/>
      <point x="583" y="-133"/>
      <point x="554" y="-138"/>
      <point x="510" y="-138" type="curve" smooth="yes"/>
      <point x="416" y="-138"/>
      <point x="367" y="-74"/>
      <point x="369" y="32" type="curve"/>
      <point x="209" y="32" type="line"/>
      <point x="209" y="-130"/>
      <point x="294" y="-222"/>
    </contour>
    <contour>
      <point x="297" y="-20" type="curve" smooth="yes"/>
      <point x="543" y="-20"/>
      <point x="683" y="177"/>
      <point x="683" y="399" type="curve" smooth="yes"/>
      <point x="683" y="570"/>
      <point x="578" y="672"/>
      <point x="425" y="672" type="curve" smooth="yes"/>
      <point x="178" y="672"/>
      <point x="38" y="468"/>
      <point x="38" y="257" type="curve" smooth="yes"/>
      <point x="38" y="65"/>
      <point x="151" y="-20"/>
    </contour>
    <contour>
      <point x="307" y="40" type="curve" smooth="yes"/>
      <point x="244" y="40"/>
      <point x="218" y="95"/>
      <point x="218" y="217" type="curve" smooth="yes"/>
      <point x="218" y="430"/>
      <point x="312" y="612"/>
      <point x="416" y="612" type="curve" smooth="yes"/>
      <point x="481" y="612"/>
      <point x="502" y="558"/>
      <point x="502" y="443" type="curve" smooth="yes"/>
      <point x="502" y="230"/>
      <point x="410" y="40"/>
    </contour>
  </outline>
</glyph>
<glyph name="Z" format="2">
  <advance width="547"/>
  <unicode hex="005A"/>
  <anchor x="365" y="682" name="aboveUC"/>
  <anchor x="245" y="-22" name="belowLC"/>
  <outline>
    <contour>
      <point x="-9" y="0" type="line"/>
      <point x="162" y="0" type="line"/>
      <point x="592" y="602" type="line"/>
      <point x="602" y="652" type="line"/>
      <point x="431" y="652" type="line"/>
      <point x="1" y="50" type="line"/>
    </contour>
    <contour>
      <point x="64" y="463" type="line"/>
      <point x="150" y="463" type="line"/>
      <point x="224" y="652" type="line"/>
      <point x="130" y="592" type="line"/>
      <point x="506" y="592" type="line"/>
      <point x="518" y="652" type="line"/>
      <point x="108" y="652" type="line"/>
    </contour>
    <contour>
      <point x="73" y="0" type="line"/>
      <point x="496" y="0" type="line"/>
      <point x="540" y="189" type="line"/>
      <point x="452" y="189" type="line"/>
      <point x="379" y="0" type="line"/>
      <point x="475" y="60" type="line"/>
      <point x="85" y="60" type="line"/>
    </contour>
  </outline>
</glyph>
<glyph name="bracketright" format="2">
  <advance width="361"/>
  <unicode hex="005D"/>
  <outline>
    <contour>
      <point x="388" y="715" type="curve"/>
      <point x="249" y="715" type="line"/>
      <point x="231" y="610"/>
      <point x="209" y="503"/>
      <point x="187" y="398" type="curve" smooth="yes"/>
      <point x="139" y="158" type="line" smooth="yes"/>
      <point x="117" y="51"/>
      <point x="95" y="-56"/>
      <point x="71" y="-159" type="curve"/>
      <point x="210" y="-159" type="line"/>
      <point x="228" y="-54"/>
      <point x="250" y="53"/>
      <point x="272" y="158" type="curve" smooth="yes"/>
      <point x="320" y="398" type="line" smooth="yes"/>
      <point x="342" y="505"/>
      <point x="364" y="612"/>
    </contour>
    <contour>
      <point x="318" y="715" type="line"/>
      <point x="150" y="715" type="line"/>
      <point x="138" y="656" type="line"/>
      <point x="283" y="641" type="line"/>
      <point x="303" y="641" type="line"/>
    </contour>
    <contour>
      <point x="155" y="-85" type="line"/>
      <point x="135" y="-85" type="line"/>
      <point x="-16" y="-100" type="line"/>
      <point x="-28" y="-159" type="line"/>
      <point x="140" y="-159" type="line"/>
    </contour>
  </outline>
</glyph>
<glyph name="grave" format="2">
  <advance width="400"/>
  <unicode hex="0060"/>
  <anchor x="353" y="520" name="_aboveLC"/>
  <anchor x="404" y="772" name="aboveLC"/>
  <outline>
    <contour>
      <point x="375" y="560" type="line"/>
      <point x="362" y="609"/>
      <point x="350" y="658"/>
      <point x="335" y="706" type="curve" smooth="yes"/>
      <point x="313" y="778"/>
      <point x="282" y="792"/>
      <point x="249" y="792" type="curve" smooth="yes"/>
      <point x="216" y="792"/>
      <point x="181" y="766"/>
      <point x="181" y="727" type="curve" smooth="yes"/>
      <point x="181" y="691"/>
      <point x="203" y="659"/>
      <point x="240" y="626" type="curve" smooth="yes"/>
      <point x="273" y="596"/>
      <point x="309" y="569"/>
      <point x="343" y="540" type="curve"/>
    </contour>
  </outline>
</glyph>
<glyph name="braceright" format="2">
  <advance width="334"/>
  <unicode hex="007D"/>
  <outline>
    <contour>
      <point x="337" y="308" type="line"/>
      <point x="268" y="319"/>
      <point x="257" y="344"/>
      <point x="257" y="370" type="curve" smooth="yes"/>
      <point x="257" y="457"/>
      <point x="349" y="516"/>
      <point x="349" y="611" type="curve" smooth="yes"/>
      <point x="349" y="683"/>
      <point x="274" y="715"/>
      <point x="167" y="715" type="curve" smooth="yes"/>
      <point x="130" y="715" type="line"/>
      <point x="118" y="656" type="line"/>
      <point x="152" y="653" type="line" smooth="yes"/>
      <point x="178" y="651"/>
      <point x="195" y="630"/>
      <point x="195" y="600" type="curve" smooth="yes"/>
      <point x="195" y="539"/>
      <point x="137" y="462"/>
      <point x="137" y="383" type="curve" smooth="yes"/>
      <point x="137" y="320"/>
      <point x="182" y="275"/>
      <point x="277" y="268" type="curve"/>
      <point x="281" y="288" type="line"/>
      <point x="146" y="279"/>
      <point x="80" y="194"/>
      <point x="80" y="93" type="curve" smooth="yes"/>
      <point x="80" y="65"/>
      <point x="83" y="38"/>
      <point x="83" y="12" type="curve" smooth="yes"/>
      <point x="83" y="-47"/>
      <point x="54" y="-92"/>
      <point x="10" y="-97" type="curve" smooth="yes"/>
      <point x="-16" y="-100" type="line"/>
      <point x="-28" y="-159" type="line"/>
      <point x="-1" y="-159" type="line" smooth="yes"/>
      <point x="125" y="-159"/>
      <point x="235" y="-110"/>
      <point x="235" y="4" type="curve" smooth="yes"/>
      <point x="235" y="54"/>
      <point x="212" y="93"/>
      <point x="212" y="141" type="curve" smooth="yes"/>
      <point x="212" y="191"/>
      <point x="225" y="233"/>
      <point x="325" y="248" type="curve"/>
    </contour>
  </outline>
</glyph>
<glyph name="exclamdown" format="2">
  <advance width="306"/>
  <unicode hex="00A1"/>
  <outline>
    <contour>
      <point x="201" y="265" type="line"/>
      <point x="152" y="265" type="line"/>
      <point x="5" y="-5"/>
      <point x="-14" y="-55"/>
      <point x="-14" y="-96" type="curve" smooth="yes"/>
      <point x="-14" y="-146"/>
      <point x="14" y="-181"/>
      <point x="73" y="-181" type="curve" smooth="yes"/>
      <point x="134" y="-181"/>
      <point x="182" y="-154"/>
      <point x="201" y="-86" type="curve" smooth="yes"/>
      <point x="211" y="-48"/>
      <point x="213" y="13"/>
      <point x="207" y="141" type="curve" smooth="yes"/>
    </contour>
    <contour>
      <point x="291" y="429" type="curve" smooth="yes"/>
      <point x="291" y="470"/>
      <point x="258" y="507"/>
      <point x="209" y="507" type="curve" smooth="yes"/>
      <point x="158" y="507"/>
      <point x="112" y="466"/>
      <point x="112" y="412" type="curve" smooth="yes"/>
      <point x="112" y="369"/>
      <point x="146" y="332"/>
      <point x="194" y="332" type="curve" smooth="yes"/>
      <point x="245" y="332"/>
      <point x="291" y="375"/>
    </contour>
  </outline>
</glyph>
<glyph name="dieresis" format="2">
  <advance width="400"/>
  <unicode hex="00A8"/>
  <anchor x="259" y="520" name="_aboveLC"/>
  <anchor x="307" y="746" name="aboveLC"/>
  <outline>
    <contour>
      <point x="166" y="582" type="curve" smooth="yes"/>
      <point x="209" y="582"/>
      <point x="253" y="614"/>
      <point x="253" y="672" type="curve" smooth="yes"/>
      <point x="253" y="715"/>
      <point x="220" y="741"/>
      <point x="180" y="741" type="curve" smooth="yes"/>
      <point x="137" y="741"/>
      <point x="92" y="709"/>
      <point x="92" y="652" type="curve" smooth="yes"/>
      <point x="92" y="607"/>
      <point x="127" y="582"/>
    </contour>
    <contour>
      <point x="399" y="582" type="curve" smooth="yes"/>
      <point x="442" y="582"/>
      <point x="486" y="614"/>
      <point x="486" y="672" type="curve" smooth="yes"/>
      <point x="486" y="715"/>
      <point x="453" y="741"/>
      <point x="413" y="741" type="curve" smooth="yes"/>
      <point x="370" y="741"/>
      <point x="325" y="709"/>
      <point x="325" y="652" type="curve" smooth="yes"/>
      <point x="325" y="607"/>
      <point x="360" y="582"/>
    </contour>
  </outline>
</glyph>
<glyph name="guillemotleft" format="2">
  <advance width="633"/>
  <unicode hex="00AB"/>
  <outline>
    <contour>
      <point x="285" y="22" type="line"/>
      <point x="331" y="61" type="line"/>
      <point x="158" y="297" type="line"/>
      <point x="141" y="208" type="line"/>
      <point x="382" y="444" type="line"/>
      <point x="350" y="483" type="line"/>
      <point x="79" y="288" type="line"/>
      <point x="66" y="217" type="line"/>
    </contour>
    <contour>
      <point x="525" y="22" type="line"/>
      <point x="571" y="61" type="line"/>
      <point x="398" y="297" type="line"/>
      <point x="381" y="208" type="line"/>
      <point x="622" y="444" type="line"/>
      <point x="590" y="483" type="line"/>
      <point x="319" y="288" type="line"/>
      <point x="306" y="217" type="line"/>
    </contour>
  </outline>
</glyph>
<glyph name="logicalnot" format="2">
  <advance width="550"/>
  <unicode hex="00AC"/>
  <outline>
    <contour>
      <point x="63" y="308" type="line"/>
      <point x="469" y="308" type="line"/>
      <point x="426" y="350" type="line"/>
      <point x="426" y="146" type="line"/>
      <point x="523" y="146" type="line"/>
      <point x="523" y="402" type="line"/>
      <point x="63" y="402" type="line"/>
    </contour>
  </outline>
</glyph>
<glyph name="macron" format="2">
  <advance width="400"/>
  <unicode hex="00AF"/>
  <anchor x="276" y="520" name="_aboveLC"/>
  <anchor x="313" y="693" name="aboveLC"/>
  <outline>
    <contour>
      <point x="141" y="603" type="line"/>
      <point x="445" y="603" type="line"/>
      <point x="462" y="683" type="line"/>
      <point x="158" y="683" type="line"/>
    </contour>
  </outline>
</glyph>
<glyph name="acute" format="2">
  <advance width="400"/>
  <unicode hex="00B4"/>
  <anchor x="210" y="520" name="_aboveLC"/>
  <anchor x="268" y="792" name="aboveLC"/>
  <outline>
    <contour>
      <point x="200" y="561" type="curve"/>
      <point x="235" y="539" type="line"/>
      <point x="269" y="568"/>
      <point x="304" y="596"/>
      <point x="337" y="626" type="curve" smooth="yes"/>
      <point x="374" y="659"/>
      <point x="396" y="691"/>
      <point x="396" y="727" type="curve" smooth="yes"/>
      <point x="396" y="766"/>
      <point x="361" y="792"/>
      <point x="328" y="792" type="curve" smooth="yes"/>
      <point x="295" y="792"/>
      <point x="265" y="777"/>
      <point x="242" y="706" type="curve" smooth="yes"/>
      <point x="227" y="658"/>
      <point x="214" y="609"/>
    </contour>
  </outline>
</glyph>
<glyph name="periodcentered" format="2">
  <advance width="310"/>
  <unicode hex="00B7"/>
  <outline>
    <contour>
      <point x="182" y="237" type="curve" smooth="yes"/>
      <point x="239" y="237"/>
      <point x="290" y="282"/>
      <point x="290" y="342" type="curve" smooth="yes"/>
      <point x="290" y="390"/>
      <point x="252" y="431"/>
      <point x="199" y="431" type="curve" smooth="yes"/>
      <point x="142" y="431"/>
      <point x="91" y="384"/>
      <point x="91" y="324" type="curve" smooth="yes"/>
      <point x="91" y="278"/>
      <point x="128" y="237"/>
    </contour>
  </outline>
</glyph>
<glyph name="cedilla" format="2">
  <advance width="400"/>
  <unicode hex="00B8"/>
  <anchor x="153" y="0" name="_baseLC"/>
  <outline>
    <contour>
      <point x="96" y="-91" type="line"/>
      <point x="135" y="-97"/>
      <point x="161" y="-113"/>
      <point x="161" y="-139" type="curve" smooth="yes"/>
      <point x="161" y="-163"/>
      <point x="140" y="-178"/>
      <point x="111" y="-178" type="curve" smooth="yes"/>
      <point x="94" y="-178"/>
      <point x="74" y="-173"/>
      <point x="56" y="-165" type="curve"/>
      <point x="35" y="-208" type="line"/>
      <point x="55" y="-222"/>
      <point x="89" y="-232"/>
      <point x="128" y="-232" type="curve" smooth="yes"/>
      <point x="208" y="-232"/>
      <point x="248" y="-192"/>
      <point x="248" y="-147" type="curve" smooth="yes"/>
      <point x="248" y="-99"/>
      <point x="215" y="-72"/>
      <point x="131" y="-51" type="curve"/>
      <point x="149" y="-77" type="line"/>
      <point x="188" y="1" type="line"/>
      <point x="141" y="1" type="line"/>
    </contour>
  </outline>
</glyph>
<glyph name="guillemotright" format="2">
  <advance width="633"/>
  <unicode hex="00BB"/>
  <outline>
    <contour>
      <point x="381" y="483" type="line"/>
      <point x="335" y="444" type="line"/>
      <point x="508" y="208" type="line"/>
      <point x="525" y="297" type="line"/>
      <point x="284" y="61" type="line"/>
      <point x="316" y="22" type="line"/>
      <point x="587" y="217" type="line"/>
      <point x="600" y="288" type="line"/>
    </contour>
    <contour>
      <point x="141" y="483" type="line"/>
      <point x="95" y="444" type="line"/>
      <point x="268" y="208" type="line"/>
      <point x="285" y="297" type="line"/>
      <point x="44" y="61" type="line"/>
      <point x="76" y="22" type="line"/>
      <point x="347" y="217" type="line"/>
      <point x="360" y="288" type="line"/>
    </contour>
  </outline>
</glyph>
<glyph name="onequarter" format="2">
  <advance width="870"/>
  <unicode hex="00BC"/>
  <outline>
    <contour>
      <point x="265" y="-23" type="line"/>
      <point x="744" y="604" type="line"/>
      <point x="693" y="643" type="line"/>
      <point x="214" y="16" type="line"/>
    </contour>
    <contour>
      <point x="354" y="243" type="line"/>
      <point x="361" y="281" type="line"/>
      <point x="261" y="294" type="line"/>
      <point x="207" y="294" type="line"/>
      <point x="103" y="281" type="line"/>
      <point x="96" y="243" type="line"/>
    </contour>
    <contour>
      <point x="286" y="243" type="line"/>
      <point x="349" y="547" type="line"/>
      <point x="370" y="634" type="line"/>
      <point x="362" y="641" type="line"/>
      <point x="171" y="603" type="line"/>
      <point x="164" y="571" type="line"/>
      <point x="243" y="571" type="line"/>
      <point x="228" y="592" type="line"/>
      <point x="158" y="243" type="line"/>
    </contour>
    <contour>
      <point x="823" y="75" type="line"/>
      <point x="835" y="145" type="line"/>
      <point x="530" y="145" type="line"/>
      <point x="538" y="133" type="line"/>
      <point x="716" y="319" type="line"/>
      <point x="698" y="319" type="line"/>
      <point x="633" y="-8" type="line"/>
      <point x="745" y="-8" type="line"/>
      <point x="823" y="387" type="line"/>
      <point x="727" y="387" type="line"/>
      <point x="504" y="152" type="line"/>
      <point x="489" y="75" type="line"/>
    </contour>
  </outline>
</glyph>
<glyph name="onehalf" format="2">
  <advance width="870"/>
  <unicode hex="00BD"/>
  <outline>
    <contour>
      <point x="245" y="-23" type="line"/>
      <point x="724" y="604" type="line"/>
      <point x="673" y="643" type="line"/>
      <point x="194" y="16" type="line"/>
    </contour>
    <contour>
      <point x="354" y="243" type="line"/>
      <point x="361" y="281" type="line"/>
      <point x="261" y="294" type="line"/>
      <point x="207" y="294" type="line"/>
      <point x="103" y="281" type="line"/>
      <point x="96" y="243" type="line"/>
    </contour>
    <contour>
      <point x="286" y="243" type="line"/>
      <point x="349" y="547" type="line"/>
      <point x="370" y="634" type="line"/>
      <point x="362" y="641" type="line"/>
      <point x="171" y="603" type="line"/>
      <point x="164" y="571" type="line"/>
      <point x="243" y="571" type="line"/>
      <point x="228" y="592" type="line"/>
      <point x="158" y="243" type="line"/>
    </contour>
    <contour>
      <point x="494" y="0" type="line"/>
      <point x="784" y="0" type="line"/>
      <point x="803" y="95" type="line"/>
      <point x="575" y="95" type="line"/>
      <point x="580" y="85" type="line"/>
      <point x="766" y="186"/>
      <point x="820" y="234"/>
      <point x="820" y="300" type="curve" smooth="yes"/>
      <point x="820" y="355"/>
      <point x="782" y="397"/>
      <point x="708" y="397" type="curve" smooth="yes"/>
      <point x="632" y="397"/>
      <point x="566" y="371"/>
      <point x="540" y="276" type="curve"/>
      <point x="543" y="243"/>
      <point x="560" y="229"/>
      <point x="588" y="229" type="curve" smooth="yes"/>
      <point x="621" y="229"/>
      <point x="642" y="248"/>
      <point x="643" y="296" type="curve" smooth="yes"/>
      <point x="644" y="373" type="line"/>
      <point x="597" y="338" type="line"/>
      <point x="621" y="346"/>
      <point x="647" y="350"/>
      <point x="666" y="350" type="curve" smooth="yes"/>
      <point x="691" y="350"/>
      <point x="709" y="335"/>
      <point x="709" y="303" type="curve" smooth="yes"/>
      <point x="709" y="249"/>
      <point x="667" y="193"/>
      <point x="506" y="69" type="curve"/>
    </contour>
  </outline>
</glyph>
<glyph name="threequarters" format="2">
  <advance width="870"/>
  <unicode hex="00BE"/>
  <outline>
    <contour>
      <point x="265" y="-23" type="line"/>
      <point x="744" y="604" type="line"/>
      <point x="693" y="643" type="line"/>
      <point x="214" y="16" type="line"/>
    </contour>
    <contour>
      <point x="201" y="234" type="curve" smooth="yes"/>
      <point x="318" y="234"/>
      <point x="385" y="283"/>
      <point x="385" y="352" type="curve" smooth="yes"/>
      <point x="385" y="410"/>
      <point x="348" y="437"/>
      <point x="246" y="447" type="curve"/>
      <point x="244" y="436" type="line"/>
      <point x="363" y="449"/>
      <point x="400" y="500"/>
      <point x="400" y="547" type="curve" smooth="yes"/>
      <point x="400" y="596"/>
      <point x="368" y="640"/>
      <point x="264" y="640" type="curve" smooth="yes"/>
      <point x="187" y="640"/>
      <point x="125" y="606"/>
      <point x="125" y="535" type="curve"/>
      <point x="134" y="525"/>
      <point x="147" y="517"/>
      <point x="164" y="517" type="curve" smooth="yes"/>
      <point x="187" y="517"/>
      <point x="212" y="527"/>
      <point x="218" y="564" type="curve" smooth="yes"/>
      <point x="229" y="624" type="line"/>
      <point x="182" y="593" type="line"/>
      <point x="200" y="597"/>
      <point x="222" y="599"/>
      <point x="228" y="599" type="curve" smooth="yes"/>
      <point x="267" y="599"/>
      <point x="287" y="581"/>
      <point x="287" y="538" type="curve" smooth="yes"/>
      <point x="287" y="484"/>
      <point x="254" y="457"/>
      <point x="187" y="457" type="curve"/>
      <point x="178" y="418" type="line"/>
      <point x="231" y="418"/>
      <point x="254" y="400"/>
      <point x="254" y="356" type="curve" smooth="yes"/>
      <point x="254" y="299"/>
      <point x="208" y="275"/>
      <point x="173" y="275" type="curve" smooth="yes"/>
      <point x="146" y="275"/>
      <point x="135" y="277"/>
      <point x="124" y="280" type="curve"/>
      <point x="174" y="248" type="line"/>
      <point x="169" y="307" type="line" smooth="yes"/>
      <point x="165" y="360"/>
      <point x="147" y="369"/>
      <point x="121" y="369" type="curve" smooth="yes"/>
      <point x="104" y="369"/>
      <point x="85" y="358"/>
      <point x="75" y="339" type="curve"/>
      <point x="76" y="275"/>
      <point x="116" y="234"/>
    </contour>
    <contour>
      <point x="823" y="75" type="line"/>
      <point x="835" y="145" type="line"/>
      <point x="530" y="145" type="line"/>
      <point x="538" y="133" type="line"/>
      <point x="716" y="319" type="line"/>
      <point x="698" y="319" type="line"/>
      <point x="633" y="-8" type="line"/>
      <point x="745" y="-8" type="line"/>
      <point x="823" y="387" type="line"/>
      <point x="727" y="387" type="line"/>
      <point x="504" y="152" type="line"/>
      <point x="489" y="75" type="line"/>
    </contour>
  </outline>
</glyph>
<glyph name="Agrave" format="2">
  <advance width="693"/>
  <unicode hex="00C0"/>
  <anchor x="466" y="881" name="aboveUC"/>
  <anchor x="259" y="-22" name="belowLC"/>
  <anchor x="533" y="0" name="ogonek"/>
  <outline>
    <contour>
      <point x="-29" y="0" type="line"/>
      <point x="198" y="0" type="line"/>
      <point x="210" y="59" type="line"/>
      <point x="119" y="74" type="line"/>
      <point x="86" y="74" type="line"/>
      <point x="-17" y="59" type="line"/>
    </contour>
    <contour>
      <point x="33" y="0" type="line"/>
      <point x="94" y="0" type="line"/>
      <point x="385" y="583" type="line"/>
      <point x="342" y="533" type="line"/>
      <point x="422" y="0" type="line"/>
      <point x="595" y="0" type="line"/>
      <point x="483" y="652" type="line"/>
      <point x="368" y="652" type="line"/>
    </contour>
    <contour>
      <point x="174" y="180" type="line"/>
      <point x="473" y="180" type="line"/>
      <point x="460" y="243" type="line"/>
      <point x="201" y="243" type="line"/>
    </contour>
    <contour>
      <point x="320" y="0" type="line"/>
      <point x="647" y="0" type="line"/>
      <point x="659" y="59" type="line"/>
      <point x="518" y="74" type="line"/>
      <point x="485" y="74" type="line"/>
      <point x="332" y="59" type="line"/>
    </contour>
    <contour>
      <point x="486" y="729" type="line"/>
      <point x="447" y="769"/>
      <point x="407" y="808"/>
      <point x="370" y="841" type="curve" smooth="yes"/>
      <point x="336" y="871"/>
      <point x="317" y="881"/>
      <point x="291" y="881" type="curve" smooth="yes"/>
      <point x="254" y="881"/>
      <point x="230" y="851"/>
      <point x="230" y="823" type="curve" smooth="yes"/>
      <point x="230" y="804"/>
      <point x="238" y="774"/>
      <point x="291" y="752" type="curve" smooth="yes"/>
      <point x="348" y="728"/>
      <point x="406" y="710"/>
      <point x="461" y="692" type="curve"/>
    </contour>
  </outline>
</glyph>
<glyph name="Aacute" format="2">
  <advance width="693"/>
  <unicode hex="00C1"/>
  <anchor x="516" y="879" name="aboveUC"/>
  <anchor x="259" y="-22" name="belowLC"/>
  <anchor x="533" y="0" name="ogonek"/>
  <outline>
    <contour>
      <point x="-29" y="0" type="line"/>
      <point x="198" y="0" type="line"/>
      <point x="210" y="59" type="line"/>
      <point x="119" y="74" type="line"/>
      <point x="86" y="74" type="line"/>
      <point x="-17" y="59" type="line"/>
    </contour>
    <contour>
      <point x="33" y="0" type="line"/>
      <point x="94" y="0" type="line"/>
      <point x="385" y="583" type="line"/>
      <point x="342" y="533" type="line"/>
      <point x="422" y="0" type="line"/>
      <point x="595" y="0" type="line"/>
      <point x="483" y="652" type="line"/>
      <point x="368" y="652" type="line"/>
    </contour>
    <contour>
      <point x="174" y="180" type="line"/>
      <point x="473" y="180" type="line"/>
      <point x="460" y="243" type="line"/>
      <point x="201" y="243" type="line"/>
    </contour>
    <contour>
      <point x="320" y="0" type="line"/>
      <point x="647" y="0" type="line"/>
      <point x="659" y="59" type="line"/>
      <point x="518" y="74" type="line"/>
      <point x="485" y="74" type="line"/>
      <point x="332" y="59" type="line"/>
    </contour>
    <contour>
      <point x="369" y="729" type="curve"/>
      <point x="393" y="692" type="line"/>
      <point x="450" y="710"/>
      <point x="507" y="730"/>
      <point x="564" y="750" type="curve" smooth="yes"/>
      <point x="616" y="768"/>
      <point x="628" y="798"/>
      <point x="628" y="823" type="curve" smooth="yes"/>
      <point x="628" y="850"/>
      <point x="608" y="879"/>
      <point x="570" y="879" type="curve" smooth="yes"/>
      <point x="542" y="879"/>
      <point x="521" y="872"/>
      <point x="486" y="842" type="curve" smooth="yes"/>
      <point x="446" y="806"/>
      <point x="407" y="767"/>
    </contour>
  </outline>
</glyph>
<glyph name="Acircumflex" format="2">
  <advance width="693"/>
  <unicode hex="00C2"/>
  <anchor x="464" y="887" name="aboveUC"/>
  <anchor x="259" y="-22" name="belowLC"/>
  <anchor x="533" y="0" name="ogonek"/>
  <outline>
    <contour>
      <point x="-29" y="0" type="line"/>
      <point x="198" y="0" type="line"/>
      <point x="210" y="59" type="line"/>
      <point x="119" y="74" type="line"/>
      <point x="86" y="74" type="line"/>
      <point x="-17" y="59" type="line"/>
    </contour>
    <contour>
      <point x="33" y="0" type="line"/>
      <point x="94" y="0" type="line"/>
      <point x="385" y="583" type="line"/>
      <point x="342" y="533" type="line"/>
      <point x="422" y="0" type="line"/>
      <point x="595" y="0" type="line"/>
      <point x="483" y="652" type="line"/>
      <point x="368" y="652" type="line"/>
    </contour>
    <contour>
      <point x="174" y="180" type="line"/>
      <point x="473" y="180" type="line"/>
      <point x="460" y="243" type="line"/>
      <point x="201" y="243" type="line"/>
    </contour>
    <contour>
      <point x="320" y="0" type="line"/>
      <point x="647" y="0" type="line"/>
      <point x="659" y="59" type="line"/>
      <point x="518" y="74" type="line"/>
      <point x="485" y="74" type="line"/>
      <point x="332" y="59" type="line"/>
    </contour>
    <contour>
      <point x="491" y="877" type="line"/>
      <point x="417" y="877" type="line"/>
      <point x="250" y="712" type="line"/>
      <point x="271" y="680" type="line"/>
      <point x="489" y="810" type="line"/>
      <point x="398" y="810" type="line"/>
      <point x="576" y="680" type="line"/>
      <point x="604" y="709" type="line"/>
    </contour>
  </outline>
</glyph>
<glyph name="Atilde" format="2">
  <advance width="693"/>
  <unicode hex="00C3"/>
  <anchor x="458" y="867" name="aboveUC"/>
  <anchor x="259" y="-22" name="belowLC"/>
  <anchor x="533" y="0" name="ogonek"/>
  <outline>
    <contour>
      <point x="-29" y="0" type="line"/>
      <point x="198" y="0" type="line"/>
      <point x="210" y="59" type="line"/>
      <point x="119" y="74" type="line"/>
      <point x="86" y="74" type="line"/>
      <point x="-17" y="59" type="line"/>
    </contour>
    <contour>
      <point x="33" y="0" type="line"/>
      <point x="94" y="0" type="line"/>
      <point x="385" y="583" type="line"/>
      <point x="342" y="533" type="line"/>
      <point x="422" y="0" type="line"/>
      <point x="595" y="0" type="line"/>
      <point x="483" y="652" type="line"/>
      <point x="368" y="652" type="line"/>
    </contour>
    <contour>
      <point x="174" y="180" type="line"/>
      <point x="473" y="180" type="line"/>
      <point x="460" y="243" type="line"/>
      <point x="201" y="243" type="line"/>
    </contour>
    <contour>
      <point x="320" y="0" type="line"/>
      <point x="647" y="0" type="line"/>
      <point x="659" y="59" type="line"/>
      <point x="518" y="74" type="line"/>
      <point x="485" y="74" type="line"/>
      <point x="332" y="59" type="line"/>
    </contour>
    <contour>
      <point x="245" y="716" type="curve"/>
      <point x="289" y="696" type="line"/>
      <point x="309" y="742"/>
      <point x="329" y="761"/>
      <point x="357" y="761" type="curve" smooth="yes"/>
      <point x="385" y="761"/>
      <point x="404" y="743"/>
      <point x="422" y="729" type="curve" smooth="yes"/>
      <point x="443" y="714"/>
      <point x="467" y="698"/>
      <point x="501" y="698" type="curve" smooth="yes"/>
      <point x="558" y="698"/>
      <point x="608" y="734"/>
      <point x="635" y="837" type="curve"/>
      <point x="592" y="857" type="line"/>
      <point x="570" y="808"/>
      <point x="551" y="791"/>
      <point x="526" y="791" type="curve" smooth="yes"/>
      <point x="501" y="791"/>
      <point x="483" y="807"/>
      <point x="465" y="821" type="curve" smooth="yes"/>
      <point x="443" y="839"/>
      <point x="423" y="854"/>
      <point x="382" y="854" type="curve" smooth="yes"/>
      <point x="329" y="854"/>
      <point x="273" y="810"/>
    </contour>
  </outline>
</glyph>
<glyph name="Aring" format="2">
  <advance width="693"/>
  <unicode hex="00C5"/>
  <anchor x="459" y="905" name="aboveUC"/>
  <anchor x="259" y="-22" name="belowLC"/>
  <anchor x="533" y="0" name="ogonek"/>
  <outline>
    <contour>
      <point x="-29" y="0" type="line"/>
      <point x="198" y="0" type="line"/>
      <point x="210" y="59" type="line"/>
      <point x="119" y="74" type="line"/>
      <point x="86" y="74" type="line"/>
      <point x="-17" y="59" type="line"/>
    </contour>
    <contour>
      <point x="33" y="0" type="line"/>
      <point x="94" y="0" type="line"/>
      <point x="385" y="583" type="line"/>
      <point x="342" y="533" type="line"/>
      <point x="422" y="0" type="line"/>
      <point x="595" y="0" type="line"/>
      <point x="483" y="652" type="line"/>
      <point x="368" y="652" type="line"/>
    </contour>
    <contour>
      <point x="174" y="180" type="line"/>
      <point x="473" y="180" type="line"/>
      <point x="460" y="243" type="line"/>
      <point x="201" y="243" type="line"/>
    </contour>
    <contour>
      <point x="320" y="0" type="line"/>
      <point x="647" y="0" type="line"/>
      <point x="659" y="59" type="line"/>
      <point x="518" y="74" type="line"/>
      <point x="485" y="74" type="line"/>
      <point x="332" y="59" type="line"/>
    </contour>
    <contour>
      <point x="428" y="692" type="curve" smooth="yes"/>
      <point x="490" y="692"/>
      <point x="542" y="731"/>
      <point x="542" y="806" type="curve" smooth="yes"/>
      <point x="542" y="859"/>
      <point x="501" y="895"/>
      <point x="443" y="895" type="curve" smooth="yes"/>
      <point x="382" y="895"/>
      <point x="328" y="852"/>
      <point x="328" y="782" type="curve" smooth="yes"/>
      <point x="328" y="723"/>
      <point x="377" y="692"/>
    </contour>
    <contour>
      <point x="430" y="742" type="curve" smooth="yes"/>
      <point x="401" y="742"/>
      <point x="385" y="762"/>
      <point x="385" y="786" type="curve" smooth="yes"/>
      <point x="385" y="821"/>
      <point x="408" y="845"/>
      <point x="439" y="845" type="curve" smooth="yes"/>
      <point x="467" y="845"/>
      <point x="485" y="827"/>
      <point x="485" y="801" type="curve" smooth="yes"/>
      <point x="485" y="763"/>
      <point x="461" y="742"/>
    </contour>
  </outline>
</glyph>
<glyph name="Ccedilla" format="2">
  <advance width="605"/>
  <unicode hex="00C7"/>
  <anchor x="429" y="682" name="aboveUC"/>
  <anchor x="347" y="0" name="baseLC"/>
  <anchor x="340" y="-22" name="belowLC"/>
  <outline>
    <contour>
      <point x="354" y="-20" type="curve" smooth="yes"/>
      <point x="441" y="-20"/>
      <point x="510" y="2"/>
      <point x="557" y="31" type="curve"/>
      <point x="583" y="189" type="line"/>
      <point x="498" y="189" type="line"/>
      <point x="434" y="22" type="line"/>
      <point x="517" y="84" type="line"/>
      <point x="474" y="59"/>
      <point x="432" y="40"/>
      <point x="389" y="40" type="curve" smooth="yes"/>
      <point x="274" y="40"/>
      <point x="225" y="143"/>
      <point x="225" y="259" type="curve" smooth="yes"/>
      <point x="225" y="445"/>
      <point x="316" y="611"/>
      <point x="457" y="611" type="curve" smooth="yes"/>
      <point x="508" y="611"/>
      <point x="542" y="591"/>
      <point x="584" y="544" type="curve"/>
      <point x="530" y="615" type="line"/>
      <point x="533" y="463" type="line"/>
      <point x="619" y="463" type="line"/>
      <point x="642" y="621" type="line"/>
      <point x="577" y="655"/>
      <point x="518" y="672"/>
      <point x="438" y="672" type="curve" smooth="yes"/>
      <point x="193" y="672"/>
      <point x="41" y="493"/>
      <point x="41" y="271" type="curve" smooth="yes"/>
      <point x="41" y="76"/>
      <point x="171" y="-20"/>
    </contour>
    <contour>
      <point x="294" y="-91" type="line"/>
      <point x="333" y="-97"/>
      <point x="359" y="-113"/>
      <point x="359" y="-139" type="curve" smooth="yes"/>
      <point x="359" y="-163"/>
      <point x="338" y="-178"/>
      <point x="309" y="-178" type="curve" smooth="yes"/>
      <point x="292" y="-178"/>
      <point x="272" y="-173"/>
      <point x="254" y="-165" type="curve"/>
      <point x="233" y="-208" type="line"/>
      <point x="253" y="-222"/>
      <point x="287" y="-232"/>
      <point x="326" y="-232" type="curve" smooth="yes"/>
      <point x="406" y="-232"/>
      <point x="446" y="-192"/>
      <point x="446" y="-147" type="curve" smooth="yes"/>
      <point x="446" y="-99"/>
      <point x="413" y="-72"/>
      <point x="329" y="-51" type="curve"/>
      <point x="347" y="-77" type="line"/>
      <point x="386" y="1" type="line"/>
      <point x="339" y="1" type="line"/>
    </contour>
  </outline>
</glyph>
<glyph name="Egrave" format="2">
  <advance width="587"/>
  <unicode hex="00C8"/>
  <anchor x="454" y="881" name="aboveUC"/>
  <anchor x="273" y="-22" name="belowLC"/>
  <anchor x="425" y="0" name="ogonek"/>
  <outline>
    <contour>
      <point x="-9" y="0" type="line"/>
      <point x="153" y="0" type="line"/>
      <point x="167" y="74" type="line"/>
      <point x="150" y="74" type="line"/>
      <point x="3" y="59" type="line"/>
    </contour>
    <contour>
      <point x="66" y="0" type="line"/>
      <point x="245" y="0" type="line"/>
      <point x="262" y="103"/>
      <point x="281" y="207"/>
      <point x="301" y="311" type="curve" smooth="yes"/>
      <point x="366" y="652" type="line"/>
      <point x="186" y="652" type="line"/>
      <point x="169" y="549"/>
      <point x="151" y="445"/>
      <point x="131" y="342" type="curve" smooth="yes"/>
    </contour>
    <contour>
      <point x="103" y="593" type="line"/>
      <point x="246" y="578" type="line"/>
      <point x="263" y="578" type="line"/>
      <point x="277" y="652" type="line"/>
      <point x="115" y="652" type="line"/>
    </contour>
    <contour>
      <point x="153" y="0" type="line"/>
      <point x="520" y="0" type="line"/>
      <point x="560" y="170" type="line"/>
      <point x="470" y="170" type="line"/>
      <point x="409" y="0" type="line"/>
      <point x="500" y="58" type="line"/>
      <point x="164" y="58" type="line"/>
    </contour>
    <contour>
      <point x="211" y="304" type="line"/>
      <point x="420" y="304" type="line"/>
      <point x="432" y="367" type="line"/>
      <point x="223" y="367" type="line"/>
    </contour>
    <contour>
      <point x="265" y="593" type="line"/>
      <point x="567" y="593" type="line"/>
      <point x="499" y="652" type="line"/>
      <point x="494" y="482" type="line"/>
      <point x="584" y="482" type="line"/>
      <point x="610" y="652" type="line"/>
      <point x="277" y="652" type="line"/>
    </contour>
    <contour>
      <point x="393" y="235" type="line"/>
      <point x="453" y="235" type="line"/>
      <point x="492" y="442" type="line"/>
      <point x="432" y="442" type="line"/>
      <point x="401" y="350" type="line"/>
      <point x="397" y="332" type="line"/>
    </contour>
    <contour>
      <point x="474" y="729" type="line"/>
      <point x="435" y="769"/>
      <point x="395" y="808"/>
      <point x="358" y="841" type="curve" smooth="yes"/>
      <point x="324" y="871"/>
      <point x="305" y="881"/>
      <point x="279" y="881" type="curve" smooth="yes"/>
      <point x="242" y="881"/>
      <point x="218" y="851"/>
      <point x="218" y="823" type="curve" smooth="yes"/>
      <point x="218" y="804"/>
      <point x="226" y="774"/>
      <point x="279" y="752" type="curve" smooth="yes"/>
      <point x="336" y="728"/>
      <point x="394" y="710"/>
      <point x="449" y="692" type="curve"/>
    </contour>
  </outline>
</glyph>
<glyph name="Eacute" format="2">
  <advance width="587"/>
  <unicode hex="00C9"/>
  <anchor x="475" y="879" name="aboveUC"/>
  <anchor x="273" y="-22" name="belowLC"/>
  <anchor x="425" y="0" name="ogonek"/>
  <outline>
    <contour>
      <point x="-9" y="0" type="line"/>
      <point x="153" y="0" type="line"/>
      <point x="167" y="74" type="line"/>
      <point x="150" y="74" type="line"/>
      <point x="3" y="59" type="line"/>
    </contour>
    <contour>
      <point x="66" y="0" type="line"/>
      <point x="245" y="0" type="line"/>
      <point x="262" y="103"/>
      <point x="281" y="207"/>
      <point x="301" y="311" type="curve" smooth="yes"/>
      <point x="366" y="652" type="line"/>
      <point x="186" y="652" type="line"/>
      <point x="169" y="549"/>
      <point x="151" y="445"/>
      <point x="131" y="342" type="curve" smooth="yes"/>
    </contour>
    <contour>
      <point x="103" y="593" type="line"/>
      <point x="246" y="578" type="line"/>
      <point x="263" y="578" type="line"/>
      <point x="277" y="652" type="line"/>
      <point x="115" y="652" type="line"/>
    </contour>
    <contour>
      <point x="153" y="0" type="line"/>
      <point x="520" y="0" type="line"/>
      <point x="560" y="170" type="line"/>
      <point x="470" y="170" type="line"/>
      <point x="409" y="0" type="line"/>
      <point x="500" y="58" type="line"/>
      <point x="164" y="58" type="line"/>
    </contour>
    <contour>
      <point x="211" y="304" type="line"/>
      <point x="420" y="304" type="line"/>
      <point x="432" y="367" type="line"/>
      <point x="223" y="367" type="line"/>
    </contour>
    <contour>
      <point x="265" y="593" type="line"/>
      <point x="567" y="593" type="line"/>
      <point x="499" y="652" type="line"/>
      <point x="494" y="482" type="line"/>
      <point x="584" y="482" type="line"/>
      <point x="610" y="652" type="line"/>
      <point x="277" y="652" type="line"/>
    </contour>
    <contour>
      <point x="393" y="235" type="line"/>
      <point x="453" y="235" type="line"/>
      <point x="492" y="442" type="line"/>
      <point x="432" y="442" type="line"/>
      <point x="401" y="350" type="line"/>
      <point x="397" y="332" type="line"/>
    </contour>
    <contour>
      <point x="328" y="729" type="curve"/>
      <point x="352" y="692" type="line"/>
      <point x="409" y="710"/>
      <point x="466" y="730"/>
      <point x="523" y="750" type="curve" smooth="yes"/>
      <point x="575" y="768"/>
      <point x="587" y="798"/>
      <point x="587" y="823" type="curve" smooth="yes"/>
      <point x="587" y="850"/>
      <point x="567" y="879"/>
      <point x="529" y="879" type="curve" smooth="yes"/>
      <point x="501" y="879"/>
      <point x="480" y="872"/>
      <point x="445" y="842" type="curve" smooth="yes"/>
      <point x="405" y="806"/>
      <point x="366" y="767"/>
    </contour>
  </outline>
</glyph>
<glyph name="Edieresis" format="2">
  <advance width="587"/>
  <unicode hex="00CB"/>
  <anchor x="431" y="856" name="aboveUC"/>
  <anchor x="273" y="-22" name="belowLC"/>
  <anchor x="425" y="0" name="ogonek"/>
  <outline>
    <contour>
      <point x="-9" y="0" type="line"/>
      <point x="153" y="0" type="line"/>
      <point x="167" y="74" type="line"/>
      <point x="150" y="74" type="line"/>
      <point x="3" y="59" type="line"/>
    </contour>
    <contour>
      <point x="66" y="0" type="line"/>
      <point x="245" y="0" type="line"/>
      <point x="262" y="103"/>
      <point x="281" y="207"/>
      <point x="301" y="311" type="curve" smooth="yes"/>
      <point x="366" y="652" type="line"/>
      <point x="186" y="652" type="line"/>
      <point x="169" y="549"/>
      <point x="151" y="445"/>
      <point x="131" y="342" type="curve" smooth="yes"/>
    </contour>
    <contour>
      <point x="103" y="593" type="line"/>
      <point x="246" y="578" type="line"/>
      <point x="263" y="578" type="line"/>
      <point x="277" y="652" type="line"/>
      <point x="115" y="652" type="line"/>
    </contour>
    <contour>
      <point x="153" y="0" type="line"/>
      <point x="520" y="0" type="line"/>
      <point x="560" y="170" type="line"/>
      <point x="470" y="170" type="line"/>
      <point x="409" y="0" type="line"/>
      <point x="500" y="58" type="line"/>
      <point x="164" y="58" type="line"/>
    </contour>
    <contour>
      <point x="211" y="304" type="line"/>
      <point x="420" y="304" type="line"/>
      <point x="432" y="367" type="line"/>
      <point x="223" y="367" type="line"/>
    </contour>
    <contour>
      <point x="265" y="593" type="line"/>
      <point x="567" y="593" type="line"/>
      <point x="499" y="652" type="line"/>
      <point x="494" y="482" type="line"/>
      <point x="584" y="482" type="line"/>
      <point x="610" y="652" type="line"/>
      <point x="277" y="652" type="line"/>
    </contour>
    <contour>
      <point x="393" y="235" type="line"/>
      <point x="453" y="235" type="line"/>
      <point x="492" y="442" type="line"/>
      <point x="432" y="442" type="line"/>
      <point x="401" y="350" type="line"/>
      <point x="397" y="332" type="line"/>
    </contour>
    <contour>
      <point x="285" y="703" type="curve" smooth="yes"/>
      <point x="324" y="703"/>
      <point x="364" y="732"/>
      <point x="364" y="784" type="curve" smooth="yes"/>
      <point x="364" y="822"/>
      <point x="335" y="846"/>
      <point x="297" y="846" type="curve" smooth="yes"/>
      <point x="260" y="846"/>
      <point x="217" y="820"/>
      <point x="217" y="766" type="curve" smooth="yes"/>
      <point x="217" y="726"/>
      <point x="252" y="703"/>
    </contour>
    <contour>
      <point x="522" y="703" type="curve" smooth="yes"/>
      <point x="561" y="703"/>
      <point x="601" y="732"/>
      <point x="601" y="784" type="curve" smooth="yes"/>
      <point x="601" y="822"/>
      <point x="572" y="846"/>
      <point x="534" y="846" type="curve" smooth="yes"/>
      <point x="497" y="846"/>
      <point x="454" y="820"/>
      <point x="454" y="766" type="curve" smooth="yes"/>
      <point x="454" y="726"/>
      <point x="489" y="703"/>
    </contour>
  </outline>
</glyph>
<glyph name="Igrave" format="2">
  <advance width="384"/>
  <unicode hex="00CC"/>
  <anchor x="341" y="881" name="aboveUC"/>
  <anchor x="156" y="-22" name="belowLC"/>
  <anchor x="212" y="0" name="ogonek"/>
  <outline>
    <contour>
      <point x="-9" y="0" type="line"/>
      <point x="318" y="0" type="line"/>
      <point x="330" y="59" type="line"/>
      <point x="189" y="74" type="line"/>
      <point x="156" y="74" type="line"/>
      <point x="3" y="59" type="line"/>
    </contour>
    <contour>
      <point x="66" y="0" type="line"/>
      <point x="245" y="0" type="line"/>
      <point x="262" y="103"/>
      <point x="281" y="207"/>
      <point x="301" y="311" type="curve" smooth="yes"/>
      <point x="366" y="652" type="line"/>
      <point x="186" y="652" type="line"/>
      <point x="169" y="549"/>
      <point x="151" y="445"/>
      <point x="131" y="342" type="curve" smooth="yes"/>
    </contour>
    <contour>
      <point x="103" y="593" type="line"/>
      <point x="252" y="578" type="line"/>
      <point x="285" y="578" type="line"/>
      <point x="430" y="593" type="line"/>
      <point x="442" y="652" type="line"/>
      <point x="115" y="652" type="line"/>
    </contour>
    <contour>
      <point x="361" y="729" type="line"/>
      <point x="322" y="769"/>
      <point x="282" y="808"/>
      <point x="245" y="841" type="curve" smooth="yes"/>
      <point x="211" y="871"/>
      <point x="192" y="881"/>
      <point x="166" y="881" type="curve" smooth="yes"/>
      <point x="129" y="881"/>
      <point x="105" y="851"/>
      <point x="105" y="823" type="curve" smooth="yes"/>
      <point x="105" y="804"/>
      <point x="113" y="774"/>
      <point x="166" y="752" type="curve" smooth="yes"/>
      <point x="223" y="728"/>
      <point x="281" y="710"/>
      <point x="336" y="692" type="curve"/>
    </contour>
  </outline>
</glyph>
<glyph name="Iacute" format="2">
  <advance width="384"/>
  <unicode hex="00CD"/>
  <anchor x="364" y="879" name="aboveUC"/>
  <anchor x="156" y="-22" name="belowLC"/>
  <anchor x="212" y="0" name="ogonek"/>
  <outline>
    <contour>
      <point x="-9" y="0" type="line"/>
      <point x="318" y="0" type="line"/>
      <point x="330" y="59" type="line"/>
      <point x="189" y="74" type="line"/>
      <point x="156" y="74" type="line"/>
      <point x="3" y="59" type="line"/>
    </contour>
    <contour>
      <point x="66" y="0" type="line"/>
      <point x="245" y="0" type="line"/>
      <point x="262" y="103"/>
      <point x="281" y="207"/>
      <point x="301" y="311" type="curve" smooth="yes"/>
      <point x="366" y="652" type="line"/>
      <point x="186" y="652" type="line"/>
      <point x="169" y="549"/>
      <point x="151" y="445"/>
      <point x="131" y="342" type="curve" smooth="yes"/>
    </contour>
    <contour>
      <point x="103" y="593" type="line"/>
      <point x="252" y="578" type="line"/>
      <point x="285" y="578" type="line"/>
      <point x="430" y="593" type="line"/>
      <point x="442" y="652" type="line"/>
      <point x="115" y="652" type="line"/>
    </contour>
    <contour>
      <point x="217" y="729" type="curve"/>
      <point x="241" y="692" type="line"/>
      <point x="298" y="710"/>
      <point x="355" y="730"/>
      <point x="412" y="750" type="curve" smooth="yes"/>
      <point x="464" y="768"/>
      <point x="476" y="798"/>
      <point x="476" y="823" type="curve" smooth="yes"/>
      <point x="476" y="850"/>
      <point x="456" y="879"/>
      <point x="418" y="879" type="curve" smooth="yes"/>
      <point x="390" y="879"/>
      <point x="369" y="872"/>
      <point x="334" y="842" type="curve" smooth="yes"/>
      <point x="294" y="806"/>
      <point x="255" y="767"/>
    </contour>
  </outline>
</glyph>
<glyph name="Idieresis" format="2">
  <advance width="384"/>
  <unicode hex="00CF"/>
  <anchor x="276" y="682" name="aboveUC"/>
  <anchor x="156" y="-22" name="belowLC"/>
  <anchor x="212" y="0" name="ogonek"/>
  <outline>
    <contour>
      <point x="197" y="703" type="curve" smooth="yes"/>
      <point x="236" y="703"/>
      <point x="276" y="732"/>
      <point x="276" y="784" type="curve" smooth="yes"/>
      <point x="276" y="822"/>
      <point x="247" y="846"/>
      <point x="209" y="846" type="curve" smooth="yes"/>
      <point x="172" y="846"/>
      <point x="129" y="820"/>
      <point x="129" y="766" type="curve" smooth="yes"/>
      <point x="129" y="726"/>
      <point x="164" y="703"/>
    </contour>
    <contour>
      <point x="388" y="703" type="curve" smooth="yes"/>
      <point x="427" y="703"/>
      <point x="467" y="732"/>
      <point x="467" y="784" type="curve" smooth="yes"/>
      <point x="467" y="822"/>
      <point x="438" y="846"/>
      <point x="400" y="846" type="curve" smooth="yes"/>
      <point x="363" y="846"/>
      <point x="320" y="820"/>
      <point x="320" y="766" type="curve" smooth="yes"/>
      <point x="320" y="726"/>
      <point x="355" y="703"/>
    </contour>
    <contour>
      <point x="-9" y="0" type="line"/>
      <point x="318" y="0" type="line"/>
      <point x="330" y="59" type="line"/>
      <point x="189" y="74" type="line"/>
      <point x="156" y="74" type="line"/>
      <point x="3" y="59" type="line"/>
    </contour>
    <contour>
      <point x="66" y="0" type="line"/>
      <point x="245" y="0" type="line"/>
      <point x="262" y="103"/>
      <point x="281" y="207"/>
      <point x="301" y="311" type="curve" smooth="yes"/>
      <point x="366" y="652" type="line"/>
      <point x="186" y="652" type="line"/>
      <point x="169" y="549"/>
      <point x="151" y="445"/>
      <point x="131" y="342" type="curve" smooth="yes"/>
    </contour>
    <contour>
      <point x="103" y="593" type="line"/>
      <point x="252" y="578" type="line"/>
      <point x="285" y="578" type="line"/>
      <point x="430" y="593" type="line"/>
      <point x="442" y="652" type="line"/>
      <point x="115" y="652" type="line"/>
    </contour>
  </outline>
</glyph>
<glyph name="Ntilde" format="2">
  <advance width="690"/>
  <unicode hex="00D1"/>
  <anchor x="476" y="867" name="aboveUC"/>
  <anchor x="320" y="-22" name="belowLC"/>
  <outline>
    <contour>
      <point x="-17" y="0" type="line"/>
      <point x="245" y="0" type="line"/>
      <point x="256" y="59" type="line"/>
      <point x="130" y="74" type="line"/>
      <point x="99" y="74" type="line"/>
      <point x="-6" y="59" type="line"/>
    </contour>
    <contour>
      <point x="64" y="0" type="line"/>
      <point x="131" y="0" type="line"/>
      <point x="243" y="592" type="line"/>
      <point x="188" y="652" type="line"/>
    </contour>
    <contour>
      <point x="451" y="0" type="line"/>
      <point x="552" y="0" type="line"/>
      <point x="575" y="147" type="line"/>
      <point x="320" y="652" type="line"/>
      <point x="101" y="652" type="line"/>
      <point x="89" y="592" type="line"/>
      <point x="193" y="585" type="line"/>
      <point x="146" y="615" type="line"/>
    </contour>
    <contour>
      <point x="482" y="593" type="line"/>
      <point x="615" y="578" type="line"/>
      <point x="645" y="578" type="line"/>
      <point x="744" y="593" type="line"/>
      <point x="756" y="652" type="line"/>
      <point x="494" y="652" type="line"/>
    </contour>
    <contour>
      <point x="552" y="0" type="line"/>
      <point x="675" y="652" type="line"/>
      <point x="608" y="652" type="line"/>
      <point x="495" y="46" type="line"/>
    </contour>
    <contour>
      <point x="263" y="716" type="curve"/>
      <point x="307" y="696" type="line"/>
      <point x="327" y="742"/>
      <point x="347" y="761"/>
      <point x="375" y="761" type="curve" smooth="yes"/>
      <point x="403" y="761"/>
      <point x="422" y="743"/>
      <point x="440" y="729" type="curve" smooth="yes"/>
      <point x="461" y="714"/>
      <point x="485" y="698"/>
      <point x="519" y="698" type="curve" smooth="yes"/>
      <point x="576" y="698"/>
      <point x="626" y="734"/>
      <point x="653" y="837" type="curve"/>
      <point x="610" y="857" type="line"/>
      <point x="588" y="808"/>
      <point x="569" y="791"/>
      <point x="544" y="791" type="curve" smooth="yes"/>
      <point x="519" y="791"/>
      <point x="501" y="807"/>
      <point x="483" y="821" type="curve" smooth="yes"/>
      <point x="461" y="839"/>
      <point x="441" y="854"/>
      <point x="400" y="854" type="curve" smooth="yes"/>
      <point x="347" y="854"/>
      <point x="291" y="810"/>
    </contour>
  </outline>
</glyph>
<glyph name="Ograve" format="2">
  <advance width="672"/>
  <unicode hex="00D2"/>
  <anchor x="476" y="881" name="aboveUC"/>
  <anchor x="299" y="-22" name="belowLC"/>
  <anchor x="581" y="669" name="hornLC"/>
  <anchor x="413" y="0" name="ogonek"/>
  <outline>
    <contour>
      <point x="297" y="-20" type="curve" smooth="yes"/>
      <point x="543" y="-20"/>
      <point x="683" y="177"/>
      <point x="683" y="399" type="curve" smooth="yes"/>
      <point x="683" y="570"/>
      <point x="578" y="672"/>
      <point x="425" y="672" type="curve" smooth="yes"/>
      <point x="178" y="672"/>
      <point x="38" y="468"/>
      <point x="38" y="257" type="curve" smooth="yes"/>
      <point x="38" y="65"/>
      <point x="151" y="-20"/>
    </contour>
    <contour>
      <point x="307" y="40" type="curve" smooth="yes"/>
      <point x="244" y="40"/>
      <point x="218" y="95"/>
      <point x="218" y="217" type="curve" smooth="yes"/>
      <point x="218" y="430"/>
      <point x="312" y="612"/>
      <point x="416" y="612" type="curve" smooth="yes"/>
      <point x="481" y="612"/>
      <point x="502" y="558"/>
      <point x="502" y="443" type="curve" smooth="yes"/>
      <point x="502" y="230"/>
      <point x="410" y="40"/>
    </contour>
    <contour>
      <point x="496" y="729" type="line"/>
      <point x="457" y="769"/>
      <point x="417" y="808"/>
      <point x="380" y="841" type="curve" smooth="yes"/>
      <point x="346" y="871"/>
      <point x="327" y="881"/>
      <point x="301" y="881" type="curve" smooth="yes"/>
      <point x="264" y="881"/>
      <point x="240" y="851"/>
      <point x="240" y="823" type="curve" smooth="yes"/>
      <point x="240" y="804"/>
      <point x="248" y="774"/>
      <point x="301" y="752" type="curve" smooth="yes"/>
      <point x="358" y="728"/>
      <point x="416" y="710"/>
      <point x="471" y="692" type="curve"/>
    </contour>
  </outline>
</glyph>
<glyph name="Oacute" format="2">
  <advance width="672"/>
  <unicode hex="00D3"/>
  <anchor x="507" y="889" name="aboveUC"/>
  <anchor x="299" y="-22" name="belowLC"/>
  <anchor x="581" y="669" name="hornLC"/>
  <anchor x="413" y="0" name="ogonek"/>
  <outline>
    <contour>
      <point x="297" y="-20" type="curve" smooth="yes"/>
      <point x="543" y="-20"/>
      <point x="683" y="177"/>
      <point x="683" y="399" type="curve" smooth="yes"/>
      <point x="683" y="570"/>
      <point x="578" y="672"/>
      <point x="425" y="672" type="curve" smooth="yes"/>
      <point x="178" y="672"/>
      <point x="38" y="468"/>
      <point x="38" y="257" type="curve" smooth="yes"/>
      <point x="38" y="65"/>
      <point x="151" y="-20"/>
    </contour>
    <contour>
      <point x="307" y="40" type="curve" smooth="yes"/>
      <point x="244" y="40"/>
      <point x="218" y="95"/>
      <point x="218" y="217" type="curve" smooth="yes"/>
      <point x="218" y="430"/>
      <point x="312" y="612"/>
      <point x="416" y="612" type="curve" smooth="yes"/>
      <point x="481" y="612"/>
      <point x="502" y="558"/>
      <point x="502" y="443" type="curve" smooth="yes"/>
      <point x="502" y="230"/>
      <point x="410" y="40"/>
    </contour>
    <contour>
      <point x="360" y="739" type="curve"/>
      <point x="384" y="702" type="line"/>
      <point x="441" y="720"/>
      <point x="498" y="740"/>
      <point x="555" y="760" type="curve" smooth="yes"/>
      <point x="607" y="778"/>
      <point x="619" y="808"/>
      <point x="619" y="833" type="curve" smooth="yes"/>
      <point x="619" y="860"/>
      <point x="599" y="889"/>
      <point x="561" y="889" type="curve" smooth="yes"/>
      <point x="533" y="889"/>
      <point x="512" y="882"/>
      <point x="477" y="852" type="curve" smooth="yes"/>
      <point x="437" y="816"/>
      <point x="398" y="777"/>
    </contour>
  </outline>
</glyph>
<glyph name="Ocircumflex" format="2">
  <advance width="672"/>
  <unicode hex="00D4"/>
  <anchor x="465" y="887" name="aboveUC"/>
  <anchor x="299" y="-22" name="belowLC"/>
  <anchor x="581" y="669" name="hornLC"/>
  <anchor x="413" y="0" name="ogonek"/>
  <outline>
    <contour>
      <point x="297" y="-20" type="curve" smooth="yes"/>
      <point x="543" y="-20"/>
      <point x="683" y="177"/>
      <point x="683" y="399" type="curve" smooth="yes"/>
      <point x="683" y="570"/>
      <point x="578" y="672"/>
      <point x="425" y="672" type="curve" smooth="yes"/>
      <point x="178" y="672"/>
      <point x="38" y="468"/>
      <point x="38" y="257" type="curve" smooth="yes"/>
      <point x="38" y="65"/>
      <point x="151" y="-20"/>
    </contour>
    <contour>
      <point x="307" y="40" type="curve" smooth="yes"/>
      <point x="244" y="40"/>
      <point x="218" y="95"/>
      <point x="218" y="217" type="curve" smooth="yes"/>
      <point x="218" y="430"/>
      <point x="312" y="612"/>
      <point x="416" y="612" type="curve" smooth="yes"/>
      <point x="481" y="612"/>
      <point x="502" y="558"/>
      <point x="502" y="443" type="curve" smooth="yes"/>
      <point x="502" y="230"/>
      <point x="410" y="40"/>
    </contour>
    <contour>
      <point x="492" y="877" type="line"/>
      <point x="418" y="877" type="line"/>
      <point x="251" y="712" type="line"/>
      <point x="272" y="680" type="line"/>
      <point x="490" y="810" type="line"/>
      <point x="399" y="810" type="line"/>
      <point x="577" y="680" type="line"/>
      <point x="605" y="709" type="line"/>
    </contour>
  </outline>
</glyph>
<glyph name="Otilde" format="2">
  <advance width="672"/>
  <unicode hex="00D5"/>
  <anchor x="456" y="867" name="aboveUC"/>
  <anchor x="299" y="-22" name="belowLC"/>
  <anchor x="581" y="669" name="hornLC"/>
  <anchor x="413" y="0" name="ogonek"/>
  <outline>
    <contour>
      <point x="297" y="-20" type="curve" smooth="yes"/>
      <point x="543" y="-20"/>
      <point x="683" y="177"/>
      <point x="683" y="399" type="curve" smooth="yes"/>
      <point x="683" y="570"/>
      <point x="578" y="672"/>
      <point x="425" y="672" type="curve" smooth="yes"/>
      <point x="178" y="672"/>
      <point x="38" y="468"/>
      <point x="38" y="257" type="curve" smooth="yes"/>
      <point x="38" y="65"/>
      <point x="151" y="-20"/>
    </contour>
    <contour>
      <point x="307" y="40" type="curve" smooth="yes"/>
      <point x="244" y="40"/>
      <point x="218" y="95"/>
      <point x="218" y="217" type="curve" smooth="yes"/>
      <point x="218" y="430"/>
      <point x="312" y="612"/>
      <point x="416" y="612" type="curve" smooth="yes"/>
      <point x="481" y="612"/>
      <point x="502" y="558"/>
      <point x="502" y="443" type="curve" smooth="yes"/>
      <point x="502" y="230"/>
      <point x="410" y="40"/>
    </contour>
    <contour>
      <point x="243" y="716" type="curve"/>
      <point x="287" y="696" type="line"/>
      <point x="307" y="742"/>
      <point x="327" y="761"/>
      <point x="355" y="761" type="curve" smooth="yes"/>
      <point x="383" y="761"/>
      <point x="402" y="743"/>
      <point x="420" y="729" type="curve" smooth="yes"/>
      <point x="441" y="714"/>
      <point x="465" y="698"/>
      <point x="499" y="698" type="curve" smooth="yes"/>
      <point x="556" y="698"/>
      <point x="606" y="734"/>
      <point x="633" y="837" type="curve"/>
      <point x="590" y="857" type="line"/>
      <point x="568" y="808"/>
      <point x="549" y="791"/>
      <point x="524" y="791" type="curve" smooth="yes"/>
      <point x="499" y="791"/>
      <point x="481" y="807"/>
      <point x="463" y="821" type="curve" smooth="yes"/>
      <point x="441" y="839"/>
      <point x="421" y="854"/>
      <point x="380" y="854" type="curve" smooth="yes"/>
      <point x="327" y="854"/>
      <point x="271" y="810"/>
    </contour>
  </outline>
</glyph>
<glyph name="Odieresis" format="2">
  <advance width="672"/>
  <unicode hex="00D6"/>
  <anchor x="448" y="856" name="aboveUC"/>
  <anchor x="299" y="-22" name="belowLC"/>
  <anchor x="581" y="669" name="hornLC"/>
  <anchor x="413" y="0" name="ogonek"/>
  <outline>
    <contour>
      <point x="297" y="-20" type="curve" smooth="yes"/>
      <point x="543" y="-20"/>
      <point x="683" y="177"/>
      <point x="683" y="399" type="curve" smooth="yes"/>
      <point x="683" y="570"/>
      <point x="578" y="672"/>
      <point x="425" y="672" type="curve" smooth="yes"/>
      <point x="178" y="672"/>
      <point x="38" y="468"/>
      <point x="38" y="257" type="curve" smooth="yes"/>
      <point x="38" y="65"/>
      <point x="151" y="-20"/>
    </contour>
    <contour>
      <point x="307" y="40" type="curve" smooth="yes"/>
      <point x="244" y="40"/>
      <point x="218" y="95"/>
      <point x="218" y="217" type="curve" smooth="yes"/>
      <point x="218" y="430"/>
      <point x="312" y="612"/>
      <point x="416" y="612" type="curve" smooth="yes"/>
      <point x="481" y="612"/>
      <point x="502" y="558"/>
      <point x="502" y="443" type="curve" smooth="yes"/>
      <point x="502" y="230"/>
      <point x="410" y="40"/>
    </contour>
    <contour>
      <point x="302" y="703" type="curve" smooth="yes"/>
      <point x="341" y="703"/>
      <point x="381" y="732"/>
      <point x="381" y="784" type="curve" smooth="yes"/>
      <point x="381" y="822"/>
      <point x="352" y="846"/>
      <point x="314" y="846" type="curve" smooth="yes"/>
      <point x="277" y="846"/>
      <point x="234" y="820"/>
      <point x="234" y="766" type="curve" smooth="yes"/>
      <point x="234" y="726"/>
      <point x="269" y="703"/>
    </contour>
    <contour>
      <point x="539" y="703" type="curve" smooth="yes"/>
      <point x="578" y="703"/>
      <point x="618" y="732"/>
      <point x="618" y="784" type="curve" smooth="yes"/>
      <point x="618" y="822"/>
      <point x="589" y="846"/>
      <point x="551" y="846" type="curve" smooth="yes"/>
      <point x="514" y="846"/>
      <point x="471" y="820"/>
      <point x="471" y="766" type="curve" smooth="yes"/>
      <point x="471" y="726"/>
      <point x="506" y="703"/>
    </contour>
  </outline>
</glyph>
<glyph name="multiply" format="2">
  <advance width="550"/>
  <unicode hex="00D7"/>
  <outline>
    <contour>
      <point x="448" y="96" type="line"/>
      <point x="517" y="165" type="line"/>
      <point x="138" y="544" type="line"/>
      <point x="69" y="475" type="line"/>
    </contour>
    <contour>
      <point x="517" y="475" type="line"/>
      <point x="448" y="544" type="line"/>
      <point x="69" y="165" type="line"/>
      <point x="138" y="96" type="line"/>
    </contour>
  </outline>
</glyph>
<glyph name="Ugrave" format="2">
  <advance width="677"/>
  <unicode hex="00D9"/>
  <anchor x="523" y="881" name="aboveUC"/>
  <anchor x="311" y="-22" name="belowLC"/>
  <anchor x="695" y="681" name="hornLC"/>
  <anchor x="426" y="0" name="ogonek"/>
  <outline>
    <contour>
      <point x="88" y="183" type="curve" smooth="yes"/>
      <point x="88" y="44"/>
      <point x="181" y="-20"/>
      <point x="327" y="-20" type="curve" smooth="yes"/>
      <point x="474" y="-20"/>
      <point x="572" y="66"/>
      <point x="608" y="260" type="curve" smooth="yes"/>
      <point x="680" y="652" type="line"/>
      <point x="611" y="652" type="line"/>
      <point x="537" y="256" type="line" smooth="yes"/>
      <point x="512" y="126"/>
      <point x="459" y="72"/>
      <point x="391" y="72" type="curve" smooth="yes"/>
      <point x="311" y="72"/>
      <point x="278" y="116"/>
      <point x="278" y="189" type="curve" smooth="yes"/>
      <point x="278" y="215"/>
      <point x="281" y="246"/>
      <point x="288" y="281" type="curve" smooth="yes"/>
      <point x="360" y="652" type="line"/>
      <point x="164" y="652" type="line"/>
      <point x="149" y="553"/>
      <point x="129" y="453"/>
      <point x="112" y="356" type="curve" smooth="yes"/>
      <point x="96" y="265" type="line" smooth="yes"/>
      <point x="91" y="235"/>
      <point x="88" y="208"/>
    </contour>
    <contour>
      <point x="89" y="593" type="line"/>
      <point x="236" y="578" type="line"/>
      <point x="267" y="578" type="line"/>
      <point x="419" y="593" type="line"/>
      <point x="430" y="652" type="line"/>
      <point x="100" y="652" type="line"/>
    </contour>
    <contour>
      <point x="518" y="593" type="line"/>
      <point x="618" y="586" type="line"/>
      <point x="649" y="586" type="line"/>
      <point x="746" y="593" type="line"/>
      <point x="757" y="652" type="line"/>
      <point x="529" y="652" type="line"/>
    </contour>
    <contour>
      <point x="543" y="729" type="line"/>
      <point x="504" y="769"/>
      <point x="464" y="808"/>
      <point x="427" y="841" type="curve" smooth="yes"/>
      <point x="393" y="871"/>
      <point x="374" y="881"/>
      <point x="348" y="881" type="curve" smooth="yes"/>
      <point x="311" y="881"/>
      <point x="287" y="851"/>
      <point x="287" y="823" type="curve" smooth="yes"/>
      <point x="287" y="804"/>
      <point x="295" y="774"/>
      <point x="348" y="752" type="curve" smooth="yes"/>
      <point x="405" y="728"/>
      <point x="463" y="710"/>
      <point x="518" y="692" type="curve"/>
    </contour>
  </outline>
</glyph>
<glyph name="Uacute" format="2">
  <advance width="677"/>
  <unicode hex="00DA"/>
  <anchor x="554" y="879" name="aboveUC"/>
  <anchor x="311" y="-22" name="belowLC"/>
  <anchor x="695" y="681" name="hornLC"/>
  <anchor x="426" y="0" name="ogonek"/>
  <outline>
    <contour>
      <point x="88" y="183" type="curve" smooth="yes"/>
      <point x="88" y="44"/>
      <point x="181" y="-20"/>
      <point x="327" y="-20" type="curve" smooth="yes"/>
      <point x="474" y="-20"/>
      <point x="572" y="66"/>
      <point x="608" y="260" type="curve" smooth="yes"/>
      <point x="680" y="652" type="line"/>
      <point x="611" y="652" type="line"/>
      <point x="537" y="256" type="line" smooth="yes"/>
      <point x="512" y="126"/>
      <point x="459" y="72"/>
      <point x="391" y="72" type="curve" smooth="yes"/>
      <point x="311" y="72"/>
      <point x="278" y="116"/>
      <point x="278" y="189" type="curve" smooth="yes"/>
      <point x="278" y="215"/>
      <point x="281" y="246"/>
      <point x="288" y="281" type="curve" smooth="yes"/>
      <point x="360" y="652" type="line"/>
      <point x="164" y="652" type="line"/>
      <point x="149" y="553"/>
      <point x="129" y="453"/>
      <point x="112" y="356" type="curve" smooth="yes"/>
      <point x="96" y="265" type="line" smooth="yes"/>
      <point x="91" y="235"/>
      <point x="88" y="208"/>
    </contour>
    <contour>
      <point x="89" y="593" type="line"/>
      <point x="236" y="578" type="line"/>
      <point x="267" y="578" type="line"/>
      <point x="419" y="593" type="line"/>
      <point x="430" y="652" type="line"/>
      <point x="100" y="652" type="line"/>
    </contour>
    <contour>
      <point x="518" y="593" type="line"/>
      <point x="618" y="586" type="line"/>
      <point x="649" y="586" type="line"/>
      <point x="746" y="593" type="line"/>
      <point x="757" y="652" type="line"/>
      <point x="529" y="652" type="line"/>
    </contour>
    <contour>
      <point x="407" y="729" type="curve"/>
      <point x="431" y="692" type="line"/>
      <point x="488" y="710"/>
      <point x="545" y="730"/>
      <point x="602" y="750" type="curve" smooth="yes"/>
      <point x="654" y="768"/>
      <point x="666" y="798"/>
      <point x="666" y="823" type="curve" smooth="yes"/>
      <point x="666" y="850"/>
      <point x="646" y="879"/>
      <point x="608" y="879" type="curve" smooth="yes"/>
      <point x="580" y="879"/>
      <point x="559" y="872"/>
      <point x="524" y="842" type="curve" smooth="yes"/>
      <point x="484" y="806"/>
      <point x="445" y="767"/>
    </contour>
  </outline>
</glyph>
<glyph name="Ucircumflex" format="2">
  <advance width="677"/>
  <unicode hex="00DB"/>
  <anchor x="514" y="887" name="aboveUC"/>
  <anchor x="311" y="-22" name="belowLC"/>
  <anchor x="695" y="681" name="hornLC"/>
  <anchor x="426" y="0" name="ogonek"/>
  <outline>
    <contour>
      <point x="88" y="183" type="curve" smooth="yes"/>
      <point x="88" y="44"/>
      <point x="181" y="-20"/>
      <point x="327" y="-20" type="curve" smooth="yes"/>
      <point x="474" y="-20"/>
      <point x="572" y="66"/>
      <point x="608" y="260" type="curve" smooth="yes"/>
      <point x="680" y="652" type="line"/>
      <point x="611" y="652" type="line"/>
      <point x="537" y="256" type="line" smooth="yes"/>
      <point x="512" y="126"/>
      <point x="459" y="72"/>
      <point x="391" y="72" type="curve" smooth="yes"/>
      <point x="311" y="72"/>
      <point x="278" y="116"/>
      <point x="278" y="189" type="curve" smooth="yes"/>
      <point x="278" y="215"/>
      <point x="281" y="246"/>
      <point x="288" y="281" type="curve" smooth="yes"/>
      <point x="360" y="652" type="line"/>
      <point x="164" y="652" type="line"/>
      <point x="149" y="553"/>
      <point x="129" y="453"/>
      <point x="112" y="356" type="curve" smooth="yes"/>
      <point x="96" y="265" type="line" smooth="yes"/>
      <point x="91" y="235"/>
      <point x="88" y="208"/>
    </contour>
    <contour>
      <point x="89" y="593" type="line"/>
      <point x="236" y="578" type="line"/>
      <point x="267" y="578" type="line"/>
      <point x="419" y="593" type="line"/>
      <point x="430" y="652" type="line"/>
      <point x="100" y="652" type="line"/>
    </contour>
    <contour>
      <point x="518" y="593" type="line"/>
      <point x="618" y="586" type="line"/>
      <point x="649" y="586" type="line"/>
      <point x="746" y="593" type="line"/>
      <point x="757" y="652" type="line"/>
      <point x="529" y="652" type="line"/>
    </contour>
    <contour>
      <point x="541" y="877" type="line"/>
      <point x="467" y="877" type="line"/>
      <point x="300" y="712" type="line"/>
      <point x="321" y="680" type="line"/>
      <point x="539" y="810" type="line"/>
      <point x="448" y="810" type="line"/>
      <point x="626" y="680" type="line"/>
      <point x="654" y="709" type="line"/>
    </contour>
  </outline>
</glyph>
<glyph name="Yacute" format="2">
  <advance width="583"/>
  <unicode hex="00DD"/>
  <anchor x="496" y="879" name="aboveUC"/>
  <anchor x="259" y="-22" name="belowLC"/>
  <outline>
    <contour>
      <point x="60" y="593" type="line"/>
      <point x="212" y="578" type="line"/>
      <point x="263" y="578" type="line"/>
      <point x="386" y="593" type="line"/>
      <point x="398" y="652" type="line"/>
      <point x="72" y="652" type="line"/>
    </contour>
    <contour>
      <point x="92" y="0" type="line"/>
      <point x="437" y="0" type="line"/>
      <point x="449" y="59" type="line"/>
      <point x="302" y="74" type="line"/>
      <point x="251" y="74" type="line"/>
      <point x="104" y="59" type="line"/>
    </contour>
    <contour>
      <point x="240" y="211" type="line"/>
      <point x="360" y="211" type="line"/>
      <point x="654" y="652" type="line"/>
      <point x="583" y="652" type="line"/>
      <point x="367" y="316" type="line"/>
      <point x="392" y="302" type="line"/>
      <point x="295" y="652" type="line"/>
      <point x="98" y="652" type="line"/>
    </contour>
    <contour>
      <point x="176" y="0" type="line"/>
      <point x="355" y="0" type="line"/>
      <point x="373" y="104"/>
      <point x="392" y="209"/>
      <point x="412" y="313" type="curve"/>
      <point x="236" y="313" type="line"/>
    </contour>
    <contour>
      <point x="476" y="593" type="line"/>
      <point x="564" y="578" type="line"/>
      <point x="588" y="578" type="line"/>
      <point x="672" y="593" type="line"/>
      <point x="684" y="652" type="line"/>
      <point x="488" y="652" type="line"/>
    </contour>
    <contour>
      <point x="349" y="729" type="curve"/>
      <point x="373" y="692" type="line"/>
      <point x="430" y="710"/>
      <point x="487" y="730"/>
      <point x="544" y="750" type="curve" smooth="yes"/>
      <point x="596" y="768"/>
      <point x="608" y="798"/>
      <point x="608" y="823" type="curve" smooth="yes"/>
      <point x="608" y="850"/>
      <point x="588" y="879"/>
      <point x="550" y="879" type="curve" smooth="yes"/>
      <point x="522" y="879"/>
      <point x="501" y="872"/>
      <point x="466" y="842" type="curve" smooth="yes"/>
      <point x="426" y="806"/>
      <point x="387" y="767"/>
    </contour>
  </outline>
</glyph>
<glyph name="agrave" format="2">
  <advance width="588"/>
  <unicode hex="00E0"/>
  <anchor x="454" y="772" name="aboveLC"/>
  <anchor x="294" y="-22" name="belowLC"/>
  <anchor x="477" y="0" name="ogonek"/>
  <outline>
    <contour>
      <point x="156" y="-16" type="curve" smooth="yes"/>
      <point x="223" y="-16"/>
      <point x="299" y="39"/>
      <point x="355" y="110" type="curve"/>
      <point x="350" y="146" type="line"/>
      <point x="330" y="126"/>
      <point x="299" y="100"/>
      <point x="271" y="100" type="curve" smooth="yes"/>
      <point x="238" y="100"/>
      <point x="218" y="124"/>
      <point x="218" y="188" type="curve" smooth="yes"/>
      <point x="218" y="252"/>
      <point x="248" y="362"/>
      <point x="294" y="402" type="curve" smooth="yes"/>
      <point x="314" y="420"/>
      <point x="330" y="426"/>
      <point x="348" y="426" type="curve" smooth="yes"/>
      <point x="372" y="426"/>
      <point x="396" y="418"/>
      <point x="419" y="403" type="curve"/>
      <point x="499" y="462" type="line"/>
      <point x="470" y="490"/>
      <point x="434" y="503"/>
      <point x="396" y="503" type="curve" smooth="yes"/>
      <point x="241" y="503"/>
      <point x="47" y="312"/>
      <point x="47" y="132" type="curve" smooth="yes"/>
      <point x="47" y="21"/>
      <point x="99" y="-16"/>
    </contour>
    <contour>
      <point x="427" y="-16" type="curve" smooth="yes"/>
      <point x="505" y="-16"/>
      <point x="574" y="57"/>
      <point x="608" y="122" type="curve"/>
      <point x="575" y="143" type="line"/>
      <point x="546" y="105"/>
      <point x="530" y="84"/>
      <point x="514" y="84" type="curve" smooth="yes"/>
      <point x="503" y="84"/>
      <point x="498" y="91"/>
      <point x="498" y="104" type="curve" smooth="yes"/>
      <point x="498" y="114"/>
      <point x="501" y="125"/>
      <point x="505" y="141" type="curve" smooth="yes"/>
      <point x="585" y="489" type="line"/>
      <point x="569" y="503" type="line"/>
      <point x="401" y="434" type="line"/>
      <point x="342" y="165" type="line" smooth="yes"/>
      <point x="336" y="137"/>
      <point x="332" y="112"/>
      <point x="332" y="88" type="curve" smooth="yes"/>
      <point x="332" y="18"/>
      <point x="369" y="-16"/>
    </contour>
    <contour>
      <point x="425" y="560" type="line"/>
      <point x="412" y="609"/>
      <point x="400" y="658"/>
      <point x="385" y="706" type="curve" smooth="yes"/>
      <point x="363" y="778"/>
      <point x="332" y="792"/>
      <point x="299" y="792" type="curve" smooth="yes"/>
      <point x="266" y="792"/>
      <point x="231" y="766"/>
      <point x="231" y="727" type="curve" smooth="yes"/>
      <point x="231" y="691"/>
      <point x="253" y="659"/>
      <point x="290" y="626" type="curve" smooth="yes"/>
      <point x="323" y="596"/>
      <point x="359" y="569"/>
      <point x="393" y="540" type="curve"/>
    </contour>
  </outline>
</glyph>
<glyph name="atilde" format="2">
  <advance width="588"/>
  <unicode hex="00E3"/>
  <anchor x="430" y="744" name="aboveLC"/>
  <anchor x="294" y="-22" name="belowLC"/>
  <anchor x="477" y="0" name="ogonek"/>
  <outline>
    <contour>
      <point x="156" y="-16" type="curve" smooth="yes"/>
      <point x="223" y="-16"/>
      <point x="299" y="39"/>
      <point x="355" y="110" type="curve"/>
      <point x="350" y="146" type="line"/>
      <point x="330" y="126"/>
      <point x="299" y="100"/>
      <point x="271" y="100" type="curve" smooth="yes"/>
      <point x="238" y="100"/>
      <point x="218" y="124"/>
      <point x="218" y="188" type="curve" smooth="yes"/>
      <point x="218" y="252"/>
      <point x="248" y="362"/>
      <point x="294" y="402" type="curve" smooth="yes"/>
      <point x="314" y="420"/>
      <point x="330" y="426"/>
      <point x="348" y="426" type="curve" smooth="yes"/>
      <point x="372" y="426"/>
      <point x="396" y="418"/>
      <point x="419" y="403" type="curve"/>
      <point x="499" y="462" type="line"/>
      <point x="470" y="490"/>
      <point x="434" y="503"/>
      <point x="396" y="503" type="curve" smooth="yes"/>
      <point x="241" y="503"/>
      <point x="47" y="312"/>
      <point x="47" y="132" type="curve" smooth="yes"/>
      <point x="47" y="21"/>
      <point x="99" y="-16"/>
    </contour>
    <contour>
      <point x="427" y="-16" type="curve" smooth="yes"/>
      <point x="505" y="-16"/>
      <point x="574" y="57"/>
      <point x="608" y="122" type="curve"/>
      <point x="575" y="143" type="line"/>
      <point x="546" y="105"/>
      <point x="530" y="84"/>
      <point x="514" y="84" type="curve" smooth="yes"/>
      <point x="503" y="84"/>
      <point x="498" y="91"/>
      <point x="498" y="104" type="curve" smooth="yes"/>
      <point x="498" y="114"/>
      <point x="501" y="125"/>
      <point x="505" y="141" type="curve" smooth="yes"/>
      <point x="585" y="489" type="line"/>
      <point x="569" y="503" type="line"/>
      <point x="401" y="434" type="line"/>
      <point x="342" y="165" type="line" smooth="yes"/>
      <point x="336" y="137"/>
      <point x="332" y="112"/>
      <point x="332" y="88" type="curve" smooth="yes"/>
      <point x="332" y="18"/>
      <point x="369" y="-16"/>
    </contour>
    <contour>
      <point x="214" y="589" type="curve"/>
      <point x="258" y="569" type="line"/>
      <point x="278" y="605"/>
      <point x="298" y="629"/>
      <point x="326" y="629" type="curve" smooth="yes"/>
      <point x="354" y="629"/>
      <point x="373" y="611"/>
      <point x="391" y="597" type="curve" smooth="yes"/>
      <point x="410" y="582"/>
      <point x="436" y="570"/>
      <point x="470" y="570" type="curve" smooth="yes"/>
      <point x="527" y="570"/>
      <point x="576" y="608"/>
      <point x="604" y="714" type="curve"/>
      <point x="561" y="734" type="line"/>
      <point x="540" y="697"/>
      <point x="520" y="673"/>
      <point x="495" y="673" type="curve" smooth="yes"/>
      <point x="470" y="673"/>
      <point x="452" y="689"/>
      <point x="434" y="703" type="curve" smooth="yes"/>
      <point x="413" y="720"/>
      <point x="392" y="732"/>
      <point x="351" y="732" type="curve" smooth="yes"/>
      <point x="298" y="732"/>
      <point x="243" y="686"/>
    </contour>
  </outline>
</glyph>
<glyph name="adieresis" format="2">
  <advance width="588"/>
  <unicode hex="00E4"/>
  <anchor x="428" y="746" name="aboveLC"/>
  <anchor x="294" y="-22" name="belowLC"/>
  <anchor x="477" y="0" name="ogonek"/>
  <outline>
    <contour>
      <point x="156" y="-16" type="curve" smooth="yes"/>
      <point x="223" y="-16"/>
      <point x="299" y="39"/>
      <point x="355" y="110" type="curve"/>
      <point x="350" y="146" type="line"/>
      <point x="330" y="126"/>
      <point x="299" y="100"/>
      <point x="271" y="100" type="curve" smooth="yes"/>
      <point x="238" y="100"/>
      <point x="218" y="124"/>
      <point x="218" y="188" type="curve" smooth="yes"/>
      <point x="218" y="252"/>
      <point x="248" y="362"/>
      <point x="294" y="402" type="curve" smooth="yes"/>
      <point x="314" y="420"/>
      <point x="330" y="426"/>
      <point x="348" y="426" type="curve" smooth="yes"/>
      <point x="372" y="426"/>
      <point x="396" y="418"/>
      <point x="419" y="403" type="curve"/>
      <point x="499" y="462" type="line"/>
      <point x="470" y="490"/>
      <point x="434" y="503"/>
      <point x="396" y="503" type="curve" smooth="yes"/>
      <point x="241" y="503"/>
      <point x="47" y="312"/>
      <point x="47" y="132" type="curve" smooth="yes"/>
      <point x="47" y="21"/>
      <point x="99" y="-16"/>
    </contour>
    <contour>
      <point x="427" y="-16" type="curve" smooth="yes"/>
      <point x="505" y="-16"/>
      <point x="574" y="57"/>
      <point x="608" y="122" type="curve"/>
      <point x="575" y="143" type="line"/>
      <point x="546" y="105"/>
      <point x="530" y="84"/>
      <point x="514" y="84" type="curve" smooth="yes"/>
      <point x="503" y="84"/>
      <point x="498" y="91"/>
      <point x="498" y="104" type="curve" smooth="yes"/>
      <point x="498" y="114"/>
      <point x="501" y="125"/>
      <point x="505" y="141" type="curve" smooth="yes"/>
      <point x="585" y="489" type="line"/>
      <point x="569" y="503" type="line"/>
      <point x="401" y="434" type="line"/>
      <point x="342" y="165" type="line" smooth="yes"/>
      <point x="336" y="137"/>
      <point x="332" y="112"/>
      <point x="332" y="88" type="curve" smooth="yes"/>
      <point x="332" y="18"/>
      <point x="369" y="-16"/>
    </contour>
    <contour>
      <point x="287" y="582" type="curve" smooth="yes"/>
      <point x="330" y="582"/>
      <point x="374" y="614"/>
      <point x="374" y="672" type="curve" smooth="yes"/>
      <point x="374" y="715"/>
      <point x="341" y="741"/>
      <point x="301" y="741" type="curve" smooth="yes"/>
      <point x="258" y="741"/>
      <point x="213" y="709"/>
      <point x="213" y="652" type="curve" smooth="yes"/>
      <point x="213" y="607"/>
      <point x="248" y="582"/>
    </contour>
    <contour>
      <point x="520" y="582" type="curve" smooth="yes"/>
      <point x="563" y="582"/>
      <point x="607" y="614"/>
      <point x="607" y="672" type="curve" smooth="yes"/>
      <point x="607" y="715"/>
      <point x="574" y="741"/>
      <point x="534" y="741" type="curve" smooth="yes"/>
      <point x="491" y="741"/>
      <point x="446" y="709"/>
      <point x="446" y="652" type="curve" smooth="yes"/>
      <point x="446" y="607"/>
      <point x="481" y="582"/>
    </contour>
  </outline>
</glyph>
<glyph name="ae" format="2">
  <advance width="792"/>
  <unicode hex="00E6"/>
  <anchor x="514" y="520" name="aboveLC"/>
  <anchor x="353" y="-22" name="belowLC"/>
  <anchor x="603" y="0" name="ogonek"/>
  <outline>
    <contour>
      <point x="156" y="-16" type="curve" smooth="yes"/>
      <point x="226" y="-16"/>
      <point x="309" y="36"/>
      <point x="365" y="108" type="curve"/>
      <point x="360" y="154" type="line"/>
      <point x="337" y="131"/>
      <point x="303" y="100"/>
      <point x="271" y="100" type="curve" smooth="yes"/>
      <point x="238" y="100"/>
      <point x="218" y="124"/>
      <point x="218" y="188" type="curve" smooth="yes"/>
      <point x="218" y="252"/>
      <point x="248" y="362"/>
      <point x="294" y="402" type="curve" smooth="yes"/>
      <point x="314" y="420"/>
      <point x="330" y="426"/>
      <point x="348" y="426" type="curve" smooth="yes"/>
      <point x="372" y="426"/>
      <point x="416" y="408"/>
      <point x="440" y="386" type="curve"/>
      <point x="520" y="445" type="line"/>
      <point x="493" y="476"/>
      <point x="439" y="503"/>
      <point x="396" y="503" type="curve" smooth="yes"/>
      <point x="241" y="503"/>
      <point x="47" y="312"/>
      <point x="47" y="132" type="curve" smooth="yes"/>
      <point x="47" y="21"/>
      <point x="99" y="-16"/>
    </contour>
    <contour>
      <point x="529" y="-16" type="curve" smooth="yes"/>
      <point x="651" y="-16"/>
      <point x="737" y="72"/>
      <point x="778" y="153" type="curve"/>
      <point x="748" y="174" type="line"/>
      <point x="715" y="133"/>
      <point x="669" y="101"/>
      <point x="612" y="101" type="curve" smooth="yes"/>
      <point x="551" y="101"/>
      <point x="514" y="140"/>
      <point x="514" y="215" type="curve" smooth="yes"/>
      <point x="514" y="336"/>
      <point x="589" y="444"/>
      <point x="643" y="444" type="curve" smooth="yes"/>
      <point x="659" y="444"/>
      <point x="673" y="430"/>
      <point x="673" y="399" type="curve" smooth="yes"/>
      <point x="673" y="334"/>
      <point x="622" y="250"/>
      <point x="439" y="204" type="curve"/>
      <point x="441" y="167" type="line"/>
      <point x="677" y="209"/>
      <point x="809" y="287"/>
      <point x="809" y="389" type="curve" smooth="yes"/>
      <point x="809" y="456"/>
      <point x="754" y="503"/>
      <point x="655" y="503" type="curve" smooth="yes"/>
      <point x="474" y="503"/>
      <point x="344" y="351"/>
      <point x="344" y="173" type="curve" smooth="yes"/>
      <point x="344" y="60"/>
      <point x="418" y="-16"/>
    </contour>
  </outline>
</glyph>
<glyph name="ccedilla" format="2">
  <advance width="493"/>
  <unicode hex="00E7"/>
  <anchor x="375" y="520" name="aboveLC"/>
  <anchor x="212" y="0" name="baseLC"/>
  <anchor x="231" y="-22" name="belowLC"/>
  <outline>
    <contour>
      <point x="231" y="-16" type="curve" smooth="yes"/>
      <point x="349" y="-16"/>
      <point x="439" y="69"/>
      <point x="482" y="153" type="curve"/>
      <point x="453" y="174" type="line"/>
      <point x="410" y="123"/>
      <point x="360" y="101"/>
      <point x="323" y="101" type="curve" smooth="yes"/>
      <point x="259" y="101"/>
      <point x="219" y="135"/>
      <point x="219" y="212" type="curve" smooth="yes"/>
      <point x="219" y="302"/>
      <point x="254" y="415"/>
      <point x="363" y="469" type="curve"/>
      <point x="310" y="471" type="line"/>
      <point x="354" y="385" type="line" smooth="yes"/>
      <point x="370" y="354"/>
      <point x="389" y="325"/>
      <point x="427" y="325" type="curve"/>
      <point x="473" y="325"/>
      <point x="508" y="360"/>
      <point x="509" y="402" type="curve"/>
      <point x="490" y="465"/>
      <point x="433" y="503"/>
      <point x="356" y="503" type="curve" smooth="yes"/>
      <point x="174" y="503"/>
      <point x="48" y="347"/>
      <point x="48" y="175" type="curve" smooth="yes"/>
      <point x="48" y="60"/>
      <point x="123" y="-16"/>
    </contour>
    <contour>
      <point x="171" y="-91" type="line"/>
      <point x="210" y="-97"/>
      <point x="236" y="-113"/>
      <point x="236" y="-139" type="curve" smooth="yes"/>
      <point x="236" y="-163"/>
      <point x="215" y="-178"/>
      <point x="186" y="-178" type="curve" smooth="yes"/>
      <point x="169" y="-178"/>
      <point x="149" y="-173"/>
      <point x="131" y="-165" type="curve"/>
      <point x="110" y="-208" type="line"/>
      <point x="130" y="-222"/>
      <point x="164" y="-232"/>
      <point x="203" y="-232" type="curve" smooth="yes"/>
      <point x="283" y="-232"/>
      <point x="323" y="-192"/>
      <point x="323" y="-147" type="curve" smooth="yes"/>
      <point x="323" y="-99"/>
      <point x="290" y="-72"/>
      <point x="206" y="-51" type="curve"/>
      <point x="224" y="-77" type="line"/>
      <point x="263" y="1" type="line"/>
      <point x="216" y="1" type="line"/>
    </contour>
  </outline>
</glyph>
<glyph name="egrave" format="2">
  <advance width="496"/>
  <unicode hex="00E8"/>
  <anchor x="429" y="772" name="aboveLC"/>
  <anchor x="242" y="-22" name="belowLC"/>
  <anchor x="307" y="0" name="ogonek"/>
  <outline>
    <contour>
      <point x="233" y="-16" type="curve" smooth="yes"/>
      <point x="355" y="-16"/>
      <point x="441" y="72"/>
      <point x="482" y="153" type="curve"/>
      <point x="452" y="174" type="line"/>
      <point x="419" y="133"/>
      <point x="373" y="101"/>
      <point x="316" y="101" type="curve" smooth="yes"/>
      <point x="255" y="101"/>
      <point x="218" y="140"/>
      <point x="218" y="215" type="curve" smooth="yes"/>
      <point x="218" y="336"/>
      <point x="293" y="444"/>
      <point x="347" y="444" type="curve" smooth="yes"/>
      <point x="363" y="444"/>
      <point x="377" y="430"/>
      <point x="377" y="399" type="curve" smooth="yes"/>
      <point x="377" y="334"/>
      <point x="326" y="250"/>
      <point x="143" y="204" type="curve"/>
      <point x="145" y="167" type="line"/>
      <point x="381" y="209"/>
      <point x="513" y="287"/>
      <point x="513" y="389" type="curve" smooth="yes"/>
      <point x="513" y="456"/>
      <point x="458" y="503"/>
      <point x="359" y="503" type="curve" smooth="yes"/>
      <point x="178" y="503"/>
      <point x="48" y="351"/>
      <point x="48" y="173" type="curve" smooth="yes"/>
      <point x="48" y="60"/>
      <point x="122" y="-16"/>
    </contour>
    <contour>
      <point x="400" y="560" type="line"/>
      <point x="387" y="609"/>
      <point x="375" y="658"/>
      <point x="360" y="706" type="curve" smooth="yes"/>
      <point x="338" y="778"/>
      <point x="307" y="792"/>
      <point x="274" y="792" type="curve" smooth="yes"/>
      <point x="241" y="792"/>
      <point x="206" y="766"/>
      <point x="206" y="727" type="curve" smooth="yes"/>
      <point x="206" y="691"/>
      <point x="228" y="659"/>
      <point x="265" y="626" type="curve" smooth="yes"/>
      <point x="298" y="596"/>
      <point x="334" y="569"/>
      <point x="368" y="540" type="curve"/>
    </contour>
  </outline>
</glyph>
<glyph name="eacute" format="2">
  <advance width="496"/>
  <unicode hex="00E9"/>
  <anchor x="402" y="792" name="aboveLC"/>
  <anchor x="242" y="-22" name="belowLC"/>
  <anchor x="307" y="0" name="ogonek"/>
  <outline>
    <contour>
      <point x="233" y="-16" type="curve" smooth="yes"/>
      <point x="355" y="-16"/>
      <point x="441" y="72"/>
      <point x="482" y="153" type="curve"/>
      <point x="452" y="174" type="line"/>
      <point x="419" y="133"/>
      <point x="373" y="101"/>
      <point x="316" y="101" type="curve" smooth="yes"/>
      <point x="255" y="101"/>
      <point x="218" y="140"/>
      <point x="218" y="215" type="curve" smooth="yes"/>
      <point x="218" y="336"/>
      <point x="293" y="444"/>
      <point x="347" y="444" type="curve" smooth="yes"/>
      <point x="363" y="444"/>
      <point x="377" y="430"/>
      <point x="377" y="399" type="curve" smooth="yes"/>
      <point x="377" y="334"/>
      <point x="326" y="250"/>
      <point x="143" y="204" type="curve"/>
      <point x="145" y="167" type="line"/>
      <point x="381" y="209"/>
      <point x="513" y="287"/>
      <point x="513" y="389" type="curve" smooth="yes"/>
      <point x="513" y="456"/>
      <point x="458" y="503"/>
      <point x="359" y="503" type="curve" smooth="yes"/>
      <point x="178" y="503"/>
      <point x="48" y="351"/>
      <point x="48" y="173" type="curve" smooth="yes"/>
      <point x="48" y="60"/>
      <point x="122" y="-16"/>
    </contour>
    <contour>
      <point x="334" y="561" type="curve"/>
      <point x="369" y="539" type="line"/>
      <point x="403" y="568"/>
      <point x="438" y="596"/>
      <point x="471" y="626" type="curve" smooth="yes"/>
      <point x="508" y="659"/>
      <point x="530" y="691"/>
      <point x="530" y="727" type="curve" smooth="yes"/>
      <point x="530" y="766"/>
      <point x="495" y="792"/>
      <point x="462" y="792" type="curve" smooth="yes"/>
      <point x="429" y="792"/>
      <point x="399" y="777"/>
      <point x="376" y="706" type="curve" smooth="yes"/>
      <point x="361" y="658"/>
      <point x="348" y="609"/>
    </contour>
  </outline>
</glyph>
<glyph name="ecircumflex" format="2">
  <advance width="496"/>
  <unicode hex="00EA"/>
  <anchor x="397" y="768" name="aboveLC"/>
  <anchor x="242" y="-22" name="belowLC"/>
  <anchor x="307" y="0" name="ogonek"/>
  <outline>
    <contour>
      <point x="233" y="-16" type="curve" smooth="yes"/>
      <point x="355" y="-16"/>
      <point x="441" y="72"/>
      <point x="482" y="153" type="curve"/>
      <point x="452" y="174" type="line"/>
      <point x="419" y="133"/>
      <point x="373" y="101"/>
      <point x="316" y="101" type="curve" smooth="yes"/>
      <point x="255" y="101"/>
      <point x="218" y="140"/>
      <point x="218" y="215" type="curve" smooth="yes"/>
      <point x="218" y="336"/>
      <point x="293" y="444"/>
      <point x="347" y="444" type="curve" smooth="yes"/>
      <point x="363" y="444"/>
      <point x="377" y="430"/>
      <point x="377" y="399" type="curve" smooth="yes"/>
      <point x="377" y="334"/>
      <point x="326" y="250"/>
      <point x="143" y="204" type="curve"/>
      <point x="145" y="167" type="line"/>
      <point x="381" y="209"/>
      <point x="513" y="287"/>
      <point x="513" y="389" type="curve" smooth="yes"/>
      <point x="513" y="456"/>
      <point x="458" y="503"/>
      <point x="359" y="503" type="curve" smooth="yes"/>
      <point x="178" y="503"/>
      <point x="48" y="351"/>
      <point x="48" y="173" type="curve" smooth="yes"/>
      <point x="48" y="60"/>
      <point x="122" y="-16"/>
    </contour>
    <contour>
      <point x="496" y="544" type="line"/>
      <point x="532" y="572" type="line"/>
      <point x="426" y="757" type="line"/>
      <point x="350" y="757" type="line"/>
      <point x="182" y="580" type="line"/>
      <point x="214" y="542" type="line"/>
      <point x="428" y="689" type="line"/>
      <point x="328" y="689" type="line"/>
    </contour>
  </outline>
</glyph>
<glyph name="edieresis" format="2">
  <advance width="496"/>
  <unicode hex="00EB"/>
  <anchor x="395" y="746" name="aboveLC"/>
  <anchor x="242" y="-22" name="belowLC"/>
  <anchor x="307" y="0" name="ogonek"/>
  <outline>
    <contour>
      <point x="233" y="-16" type="curve" smooth="yes"/>
      <point x="355" y="-16"/>
      <point x="441" y="72"/>
      <point x="482" y="153" type="curve"/>
      <point x="452" y="174" type="line"/>
      <point x="419" y="133"/>
      <point x="373" y="101"/>
      <point x="316" y="101" type="curve" smooth="yes"/>
      <point x="255" y="101"/>
      <point x="218" y="140"/>
      <point x="218" y="215" type="curve" smooth="yes"/>
      <point x="218" y="336"/>
      <point x="293" y="444"/>
      <point x="347" y="444" type="curve" smooth="yes"/>
      <point x="363" y="444"/>
      <point x="377" y="430"/>
      <point x="377" y="399" type="curve" smooth="yes"/>
      <point x="377" y="334"/>
      <point x="326" y="250"/>
      <point x="143" y="204" type="curve"/>
      <point x="145" y="167" type="line"/>
      <point x="381" y="209"/>
      <point x="513" y="287"/>
      <point x="513" y="389" type="curve" smooth="yes"/>
      <point x="513" y="456"/>
      <point x="458" y="503"/>
      <point x="359" y="503" type="curve" smooth="yes"/>
      <point x="178" y="503"/>
      <point x="48" y="351"/>
      <point x="48" y="173" type="curve" smooth="yes"/>
      <point x="48" y="60"/>
      <point x="122" y="-16"/>
    </contour>
    <contour>
      <point x="254" y="582" type="curve" smooth="yes"/>
      <point x="297" y="582"/>
      <point x="341" y="614"/>
      <point x="341" y="672" type="curve" smooth="yes"/>
      <point x="341" y="715"/>
      <point x="308" y="741"/>
      <point x="268" y="741" type="curve" smooth="yes"/>
      <point x="225" y="741"/>
      <point x="180" y="709"/>
      <point x="180" y="652" type="curve" smooth="yes"/>
      <point x="180" y="607"/>
      <point x="215" y="582"/>
    </contour>
    <contour>
      <point x="487" y="582" type="curve" smooth="yes"/>
      <point x="530" y="582"/>
      <point x="574" y="614"/>
      <point x="574" y="672" type="curve" smooth="yes"/>
      <point x="574" y="715"/>
      <point x="541" y="741"/>
      <point x="501" y="741" type="curve" smooth="yes"/>
      <point x="458" y="741"/>
      <point x="413" y="709"/>
      <point x="413" y="652" type="curve" smooth="yes"/>
      <point x="413" y="607"/>
      <point x="448" y="582"/>
    </contour>
  </outline>
</glyph>
<glyph name="igrave" format="2">
  <advance width="325"/>
  <unicode hex="00EC"/>
  <anchor x="284" y="772" name="aboveLC"/>
  <anchor x="153" y="-22" name="belowLC"/>
  <anchor x="202" y="0" name="ogonek"/>
  <outline>
    <contour>
      <point x="59" y="56" type="curve" smooth="yes"/>
      <point x="59" y="10"/>
      <point x="91" y="-16"/>
      <point x="145" y="-16" type="curve" smooth="yes"/>
      <point x="237" y="-16"/>
      <point x="305" y="51"/>
      <point x="343" y="121" type="curve"/>
      <point x="310" y="142" type="line"/>
      <point x="280" y="102"/>
      <point x="262" y="84"/>
      <point x="248" y="84" type="curve" smooth="yes"/>
      <point x="239" y="84"/>
      <point x="233" y="91"/>
      <point x="233" y="104" type="curve" smooth="yes"/>
      <point x="233" y="114"/>
      <point x="235" y="125"/>
      <point x="239" y="141" type="curve" smooth="yes"/>
      <point x="316" y="490" type="line"/>
      <point x="299" y="505" type="line"/>
      <point x="71" y="446" type="line"/>
      <point x="64" y="405" type="line"/>
      <point x="151" y="384" type="line"/>
      <point x="127" y="417" type="line"/>
      <point x="75" y="165" type="line" smooth="yes"/>
      <point x="70" y="139"/>
      <point x="59" y="88"/>
    </contour>
    <contour>
      <point x="255" y="560" type="line"/>
      <point x="242" y="609"/>
      <point x="230" y="658"/>
      <point x="215" y="706" type="curve" smooth="yes"/>
      <point x="193" y="778"/>
      <point x="162" y="792"/>
      <point x="129" y="792" type="curve" smooth="yes"/>
      <point x="96" y="792"/>
      <point x="61" y="766"/>
      <point x="61" y="727" type="curve" smooth="yes"/>
      <point x="61" y="691"/>
      <point x="83" y="659"/>
      <point x="120" y="626" type="curve" smooth="yes"/>
      <point x="153" y="596"/>
      <point x="189" y="569"/>
      <point x="223" y="540" type="curve"/>
    </contour>
  </outline>
</glyph>
<glyph name="iacute" format="2">
  <advance width="325"/>
  <unicode hex="00ED"/>
  <anchor x="282" y="792" name="aboveLC"/>
  <anchor x="153" y="-22" name="belowLC"/>
  <anchor x="202" y="0" name="ogonek"/>
  <outline>
    <contour>
      <point x="59" y="56" type="curve" smooth="yes"/>
      <point x="59" y="10"/>
      <point x="91" y="-16"/>
      <point x="145" y="-16" type="curve" smooth="yes"/>
      <point x="237" y="-16"/>
      <point x="305" y="51"/>
      <point x="343" y="121" type="curve"/>
      <point x="310" y="142" type="line"/>
      <point x="280" y="102"/>
      <point x="262" y="84"/>
      <point x="248" y="84" type="curve" smooth="yes"/>
      <point x="239" y="84"/>
      <point x="233" y="91"/>
      <point x="233" y="104" type="curve" smooth="yes"/>
      <point x="233" y="114"/>
      <point x="235" y="125"/>
      <point x="239" y="141" type="curve" smooth="yes"/>
      <point x="316" y="490" type="line"/>
      <point x="299" y="505" type="line"/>
      <point x="71" y="446" type="line"/>
      <point x="64" y="405" type="line"/>
      <point x="151" y="384" type="line"/>
      <point x="127" y="417" type="line"/>
      <point x="75" y="165" type="line" smooth="yes"/>
      <point x="70" y="139"/>
      <point x="59" y="88"/>
    </contour>
    <contour>
      <point x="214" y="561" type="curve"/>
      <point x="249" y="539" type="line"/>
      <point x="283" y="568"/>
      <point x="318" y="596"/>
      <point x="351" y="626" type="curve" smooth="yes"/>
      <point x="388" y="659"/>
      <point x="410" y="691"/>
      <point x="410" y="727" type="curve" smooth="yes"/>
      <point x="410" y="766"/>
      <point x="375" y="792"/>
      <point x="342" y="792" type="curve" smooth="yes"/>
      <point x="309" y="792"/>
      <point x="279" y="777"/>
      <point x="256" y="706" type="curve" smooth="yes"/>
      <point x="241" y="658"/>
      <point x="228" y="609"/>
    </contour>
  </outline>
</glyph>
<glyph name="icircumflex" format="2">
  <advance width="325"/>
  <unicode hex="00EE"/>
  <anchor x="283" y="768" name="aboveLC"/>
  <anchor x="153" y="-22" name="belowLC"/>
  <anchor x="202" y="0" name="ogonek"/>
  <outline>
    <contour>
      <point x="59" y="56" type="curve" smooth="yes"/>
      <point x="59" y="10"/>
      <point x="91" y="-16"/>
      <point x="145" y="-16" type="curve" smooth="yes"/>
      <point x="237" y="-16"/>
      <point x="305" y="51"/>
      <point x="343" y="121" type="curve"/>
      <point x="310" y="142" type="line"/>
      <point x="280" y="102"/>
      <point x="262" y="84"/>
      <point x="248" y="84" type="curve" smooth="yes"/>
      <point x="239" y="84"/>
      <point x="233" y="91"/>
      <point x="233" y="104" type="curve" smooth="yes"/>
      <point x="233" y="114"/>
      <point x="235" y="125"/>
      <point x="239" y="141" type="curve" smooth="yes"/>
      <point x="316" y="490" type="line"/>
      <point x="299" y="505" type="line"/>
      <point x="71" y="446" type="line"/>
      <point x="64" y="405" type="line"/>
      <point x="151" y="384" type="line"/>
      <point x="127" y="417" type="line"/>
      <point x="75" y="165" type="line" smooth="yes"/>
      <point x="70" y="139"/>
      <point x="59" y="88"/>
    </contour>
    <contour>
      <point x="382" y="544" type="line"/>
      <point x="418" y="572" type="line"/>
      <point x="312" y="757" type="line"/>
      <point x="236" y="757" type="line"/>
      <point x="68" y="580" type="line"/>
      <point x="100" y="542" type="line"/>
      <point x="314" y="689" type="line"/>
      <point x="214" y="689" type="line"/>
    </contour>
  </outline>
</glyph>
<glyph name="idieresis" format="2">
  <advance width="325"/>
  <unicode hex="00EF"/>
  <anchor x="226" y="520" name="aboveLC"/>
  <anchor x="153" y="-22" name="belowLC"/>
  <anchor x="202" y="0" name="ogonek"/>
  <outline>
    <contour>
      <point x="164" y="582" type="curve" smooth="yes"/>
      <point x="207" y="582"/>
      <point x="251" y="614"/>
      <point x="251" y="672" type="curve" smooth="yes"/>
      <point x="251" y="715"/>
      <point x="218" y="741"/>
      <point x="178" y="741" type="curve" smooth="yes"/>
      <point x="135" y="741"/>
      <point x="90" y="709"/>
      <point x="90" y="652" type="curve" smooth="yes"/>
      <point x="90" y="607"/>
      <point x="125" y="582"/>
    </contour>
    <contour>
      <point x="367" y="582" type="curve" smooth="yes"/>
      <point x="410" y="582"/>
      <point x="454" y="614"/>
      <point x="454" y="672" type="curve" smooth="yes"/>
      <point x="454" y="715"/>
      <point x="421" y="741"/>
      <point x="381" y="741" type="curve" smooth="yes"/>
      <point x="338" y="741"/>
      <point x="293" y="709"/>
      <point x="293" y="652" type="curve" smooth="yes"/>
      <point x="293" y="607"/>
      <point x="328" y="582"/>
    </contour>
    <contour>
      <point x="59" y="56" type="curve" smooth="yes"/>
      <point x="59" y="10"/>
      <point x="91" y="-16"/>
      <point x="145" y="-16" type="curve" smooth="yes"/>
      <point x="237" y="-16"/>
      <point x="305" y="51"/>
      <point x="343" y="121" type="curve"/>
      <point x="310" y="142" type="line"/>
      <point x="280" y="102"/>
      <point x="262" y="84"/>
      <point x="248" y="84" type="curve" smooth="yes"/>
      <point x="239" y="84"/>
      <point x="233" y="91"/>
      <point x="233" y="104" type="curve" smooth="yes"/>
      <point x="233" y="114"/>
      <point x="235" y="125"/>
      <point x="239" y="141" type="curve" smooth="yes"/>
      <point x="316" y="490" type="line"/>
      <point x="299" y="505" type="line"/>
      <point x="71" y="446" type="line"/>
      <point x="64" y="405" type="line"/>
      <point x="151" y="384" type="line"/>
      <point x="127" y="417" type="line"/>
      <point x="75" y="165" type="line" smooth="yes"/>
      <point x="70" y="139"/>
      <point x="59" y="88"/>
    </contour>
  </outline>
</glyph>
<glyph name="ntilde" format="2">
  <advance width="603"/>
  <unicode hex="00F1"/>
  <anchor x="408" y="744" name="aboveLC"/>
  <anchor x="269" y="-22" name="belowLC"/>
  <outline>
    <contour>
      <point x="335" y="56" type="curve" smooth="yes"/>
      <point x="335" y="10"/>
      <point x="365" y="-16"/>
      <point x="419" y="-16" type="curve" smooth="yes"/>
      <point x="511" y="-16"/>
      <point x="582" y="51"/>
      <point x="621" y="121" type="curve"/>
      <point x="588" y="142" type="line"/>
      <point x="558" y="102"/>
      <point x="538" y="84"/>
      <point x="524" y="84" type="curve" smooth="yes"/>
      <point x="515" y="84"/>
      <point x="510" y="91"/>
      <point x="510" y="104" type="curve" smooth="yes"/>
      <point x="510" y="114"/>
      <point x="513" y="125"/>
      <point x="517" y="141" type="curve" smooth="yes"/>
      <point x="565" y="331" type="line" smooth="yes"/>
      <point x="573" y="362"/>
      <point x="576" y="389"/>
      <point x="576" y="414" type="curve" smooth="yes"/>
      <point x="576" y="474"/>
      <point x="539" y="503"/>
      <point x="495" y="503" type="curve" smooth="yes"/>
      <point x="423" y="503"/>
      <point x="345" y="457"/>
      <point x="266" y="370" type="curve"/>
      <point x="268" y="323" type="line"/>
      <point x="309" y="368"/>
      <point x="347" y="387"/>
      <point x="376" y="387" type="curve" smooth="yes"/>
      <point x="389" y="387"/>
      <point x="399" y="378"/>
      <point x="399" y="362" type="curve" smooth="yes"/>
      <point x="399" y="347"/>
      <point x="395" y="322"/>
      <point x="387" y="292" type="curve" smooth="yes"/>
      <point x="352" y="153" type="line" smooth="yes"/>
      <point x="345" y="127"/>
      <point x="335" y="88"/>
    </contour>
    <contour>
      <point x="212" y="0" type="line"/>
      <point x="226" y="73"/>
      <point x="239" y="144"/>
      <point x="255" y="216" type="curve" smooth="yes"/>
      <point x="287" y="364" type="line"/>
      <point x="310" y="487" type="line"/>
      <point x="289" y="505" type="line"/>
      <point x="71" y="446" type="line"/>
      <point x="64" y="405" type="line"/>
      <point x="193" y="380" type="line"/>
      <point x="126" y="415" type="line"/>
      <point x="41" y="5" type="line"/>
      <point x="57" y="-8" type="line"/>
    </contour>
    <contour>
      <point x="192" y="589" type="curve"/>
      <point x="236" y="569" type="line"/>
      <point x="256" y="605"/>
      <point x="276" y="629"/>
      <point x="304" y="629" type="curve" smooth="yes"/>
      <point x="332" y="629"/>
      <point x="351" y="611"/>
      <point x="369" y="597" type="curve" smooth="yes"/>
      <point x="388" y="582"/>
      <point x="414" y="570"/>
      <point x="448" y="570" type="curve" smooth="yes"/>
      <point x="505" y="570"/>
      <point x="554" y="608"/>
      <point x="582" y="714" type="curve"/>
      <point x="539" y="734" type="line"/>
      <point x="518" y="697"/>
      <point x="498" y="673"/>
      <point x="473" y="673" type="curve" smooth="yes"/>
      <point x="448" y="673"/>
      <point x="430" y="689"/>
      <point x="412" y="703" type="curve" smooth="yes"/>
      <point x="391" y="720"/>
      <point x="370" y="732"/>
      <point x="329" y="732" type="curve" smooth="yes"/>
      <point x="276" y="732"/>
      <point x="221" y="686"/>
    </contour>
  </outline>
</glyph>
<glyph name="otilde" format="2">
  <advance width="551"/>
  <unicode hex="00F5"/>
  <anchor x="404" y="744" name="aboveLC"/>
  <anchor x="247" y="-22" name="belowLC"/>
  <anchor x="397" y="489" name="hornLC"/>
  <anchor x="330" y="0" name="ogonek"/>
  <outline>
    <contour>
      <point x="249" y="-16" type="curve" smooth="yes"/>
      <point x="425" y="-16"/>
      <point x="552" y="142"/>
      <point x="552" y="306" type="curve" smooth="yes"/>
      <point x="552" y="445"/>
      <point x="464" y="503"/>
      <point x="349" y="503" type="curve" smooth="yes"/>
      <point x="172" y="503"/>
      <point x="44" y="343"/>
      <point x="44" y="181" type="curve" smooth="yes"/>
      <point x="44" y="43"/>
      <point x="134" y="-16"/>
    </contour>
    <contour>
      <point x="261" y="44" type="curve" smooth="yes"/>
      <point x="235" y="44"/>
      <point x="214" y="62"/>
      <point x="214" y="139" type="curve" smooth="yes"/>
      <point x="214" y="269"/>
      <point x="262" y="443"/>
      <point x="335" y="443" type="curve" smooth="yes"/>
      <point x="363" y="443"/>
      <point x="382" y="424"/>
      <point x="382" y="354" type="curve" smooth="yes"/>
      <point x="382" y="212"/>
      <point x="332" y="44"/>
    </contour>
    <contour>
      <point x="188" y="589" type="curve"/>
      <point x="232" y="569" type="line"/>
      <point x="252" y="605"/>
      <point x="272" y="629"/>
      <point x="300" y="629" type="curve" smooth="yes"/>
      <point x="328" y="629"/>
      <point x="347" y="611"/>
      <point x="365" y="597" type="curve" smooth="yes"/>
      <point x="384" y="582"/>
      <point x="410" y="570"/>
      <point x="444" y="570" type="curve" smooth="yes"/>
      <point x="501" y="570"/>
      <point x="550" y="608"/>
      <point x="578" y="714" type="curve"/>
      <point x="535" y="734" type="line"/>
      <point x="514" y="697"/>
      <point x="494" y="673"/>
      <point x="469" y="673" type="curve" smooth="yes"/>
      <point x="444" y="673"/>
      <point x="426" y="689"/>
      <point x="408" y="703" type="curve" smooth="yes"/>
      <point x="387" y="720"/>
      <point x="366" y="732"/>
      <point x="325" y="732" type="curve" smooth="yes"/>
      <point x="272" y="732"/>
      <point x="217" y="686"/>
    </contour>
  </outline>
</glyph>
<glyph name="odieresis" format="2">
  <advance width="551"/>
  <unicode hex="00F6"/>
  <anchor x="396" y="746" name="aboveLC"/>
  <anchor x="247" y="-22" name="belowLC"/>
  <anchor x="397" y="489" name="hornLC"/>
  <anchor x="330" y="0" name="ogonek"/>
  <outline>
    <contour>
      <point x="249" y="-16" type="curve" smooth="yes"/>
      <point x="425" y="-16"/>
      <point x="552" y="142"/>
      <point x="552" y="306" type="curve" smooth="yes"/>
      <point x="552" y="445"/>
      <point x="464" y="503"/>
      <point x="349" y="503" type="curve" smooth="yes"/>
      <point x="172" y="503"/>
      <point x="44" y="343"/>
      <point x="44" y="181" type="curve" smooth="yes"/>
      <point x="44" y="43"/>
      <point x="134" y="-16"/>
    </contour>
    <contour>
      <point x="261" y="44" type="curve" smooth="yes"/>
      <point x="235" y="44"/>
      <point x="214" y="62"/>
      <point x="214" y="139" type="curve" smooth="yes"/>
      <point x="214" y="269"/>
      <point x="262" y="443"/>
      <point x="335" y="443" type="curve" smooth="yes"/>
      <point x="363" y="443"/>
      <point x="382" y="424"/>
      <point x="382" y="354" type="curve" smooth="yes"/>
      <point x="382" y="212"/>
      <point x="332" y="44"/>
    </contour>
    <contour>
      <point x="255" y="582" type="curve" smooth="yes"/>
      <point x="298" y="582"/>
      <point x="342" y="614"/>
      <point x="342" y="672" type="curve" smooth="yes"/>
      <point x="342" y="715"/>
      <point x="309" y="741"/>
      <point x="269" y="741" type="curve" smooth="yes"/>
      <point x="226" y="741"/>
      <point x="181" y="709"/>
      <point x="181" y="652" type="curve" smooth="yes"/>
      <point x="181" y="607"/>
      <point x="216" y="582"/>
    </contour>
    <contour>
      <point x="488" y="582" type="curve" smooth="yes"/>
      <point x="531" y="582"/>
      <point x="575" y="614"/>
      <point x="575" y="672" type="curve" smooth="yes"/>
      <point x="575" y="715"/>
      <point x="542" y="741"/>
      <point x="502" y="741" type="curve" smooth="yes"/>
      <point x="459" y="741"/>
      <point x="414" y="709"/>
      <point x="414" y="652" type="curve" smooth="yes"/>
      <point x="414" y="607"/>
      <point x="449" y="582"/>
    </contour>
  </outline>
</glyph>
<glyph name="ugrave" format="2">
  <advance width="598"/>
  <unicode hex="00F9"/>
  <anchor x="448" y="762" name="aboveLC"/>
  <anchor x="299" y="-22" name="belowLC"/>
  <anchor x="536" y="466" name="hornLC"/>
  <anchor x="476" y="0" name="ogonek"/>
  <outline>
    <contour>
      <point x="152" y="-16" type="curve" smooth="yes"/>
      <point x="224" y="-16"/>
      <point x="307" y="32"/>
      <point x="374" y="124" type="curve"/>
      <point x="366" y="158" type="line"/>
      <point x="329" y="116"/>
      <point x="296" y="100"/>
      <point x="268" y="100" type="curve" smooth="yes"/>
      <point x="250" y="100"/>
      <point x="234" y="109"/>
      <point x="234" y="139" type="curve" smooth="yes"/>
      <point x="234" y="158"/>
      <point x="239" y="176"/>
      <point x="244" y="196" type="curve" smooth="yes"/>
      <point x="314" y="487" type="line"/>
      <point x="295" y="505" type="line"/>
      <point x="70" y="446" type="line"/>
      <point x="63" y="405" type="line"/>
      <point x="153" y="385" type="line"/>
      <point x="130" y="417" type="line"/>
      <point x="69" y="156" type="line" smooth="yes"/>
      <point x="62" y="125"/>
      <point x="58" y="98"/>
      <point x="58" y="73" type="curve" smooth="yes"/>
      <point x="58" y="18"/>
      <point x="101" y="-16"/>
    </contour>
    <contour>
      <point x="429" y="-16" type="curve" smooth="yes"/>
      <point x="516" y="-16"/>
      <point x="581" y="53"/>
      <point x="618" y="121" type="curve"/>
      <point x="585" y="142" type="line"/>
      <point x="555" y="102"/>
      <point x="538" y="84"/>
      <point x="524" y="84" type="curve" smooth="yes"/>
      <point x="515" y="84"/>
      <point x="509" y="91"/>
      <point x="509" y="104" type="curve" smooth="yes"/>
      <point x="509" y="114"/>
      <point x="511" y="125"/>
      <point x="515" y="141" type="curve" smooth="yes"/>
      <point x="594" y="487" type="line"/>
      <point x="572" y="505" type="line"/>
      <point x="411" y="454" type="line"/>
      <point x="403" y="409"/>
      <point x="395" y="366"/>
      <point x="386" y="323" type="curve" smooth="yes"/>
      <point x="352" y="165" type="line" smooth="yes"/>
      <point x="347" y="142"/>
      <point x="342" y="121"/>
      <point x="342" y="91" type="curve" smooth="yes"/>
      <point x="342" y="23"/>
      <point x="378" y="-16"/>
    </contour>
    <contour>
      <point x="419" y="550" type="line"/>
      <point x="406" y="599"/>
      <point x="394" y="648"/>
      <point x="379" y="696" type="curve" smooth="yes"/>
      <point x="357" y="768"/>
      <point x="326" y="782"/>
      <point x="293" y="782" type="curve" smooth="yes"/>
      <point x="260" y="782"/>
      <point x="225" y="756"/>
      <point x="225" y="717" type="curve" smooth="yes"/>
      <point x="225" y="681"/>
      <point x="247" y="649"/>
      <point x="284" y="616" type="curve" smooth="yes"/>
      <point x="317" y="586"/>
      <point x="353" y="559"/>
      <point x="387" y="530" type="curve"/>
    </contour>
  </outline>
</glyph>
<glyph name="oe" format="2">
  <advance width="815"/>
  <unicode hex="0153"/>
  <anchor x="513" y="520" name="aboveLC"/>
  <anchor x="561" y="-22" name="belowLC"/>
  <anchor x="626" y="0" name="ogonek"/>
  <outline>
    <contour>
      <point x="242" y="-16" type="curve" smooth="yes"/>
      <point x="330" y="-16"/>
      <point x="402" y="26"/>
      <point x="453" y="99" type="curve"/>
      <point x="530" y="400" type="line"/>
      <point x="493" y="471"/>
      <point x="429" y="503"/>
      <point x="349" y="503" type="curve" smooth="yes"/>
      <point x="172" y="503"/>
      <point x="44" y="343"/>
      <point x="44" y="181" type="curve" smooth="yes"/>
      <point x="44" y="43"/>
      <point x="134" y="-16"/>
    </contour>
    <contour>
      <point x="261" y="44" type="curve" smooth="yes"/>
      <point x="235" y="44"/>
      <point x="214" y="62"/>
      <point x="214" y="139" type="curve" smooth="yes"/>
      <point x="214" y="269"/>
      <point x="262" y="443"/>
      <point x="335" y="443" type="curve" smooth="yes"/>
      <point x="363" y="443"/>
      <point x="382" y="424"/>
      <point x="382" y="354" type="curve" smooth="yes"/>
      <point x="382" y="212"/>
      <point x="332" y="44"/>
    </contour>
    <contour>
      <point x="552" y="-16" type="curve" smooth="yes"/>
      <point x="674" y="-16"/>
      <point x="760" y="72"/>
      <point x="801" y="153" type="curve"/>
      <point x="771" y="174" type="line"/>
      <point x="738" y="133"/>
      <point x="692" y="101"/>
      <point x="635" y="101" type="curve" smooth="yes"/>
      <point x="574" y="101"/>
      <point x="537" y="140"/>
      <point x="537" y="215" type="curve" smooth="yes"/>
      <point x="537" y="336"/>
      <point x="612" y="444"/>
      <point x="666" y="444" type="curve" smooth="yes"/>
      <point x="682" y="444"/>
      <point x="696" y="430"/>
      <point x="696" y="399" type="curve" smooth="yes"/>
      <point x="696" y="334"/>
      <point x="645" y="250"/>
      <point x="462" y="204" type="curve"/>
      <point x="464" y="167" type="line"/>
      <point x="700" y="209"/>
      <point x="832" y="287"/>
      <point x="832" y="389" type="curve" smooth="yes"/>
      <point x="832" y="456"/>
      <point x="777" y="503"/>
      <point x="678" y="503" type="curve" smooth="yes"/>
      <point x="497" y="503"/>
      <point x="367" y="351"/>
      <point x="367" y="173" type="curve" smooth="yes"/>
      <point x="367" y="60"/>
      <point x="441" y="-16"/>
    </contour>
  </outline>
</glyph>
<glyph name="Zcaron" format="2">
  <advance width="547"/>
  <unicode hex="017D"/>
  <anchor x="411" y="887" name="aboveUC"/>
  <anchor x="245" y="-22" name="belowLC"/>
  <outline>
    <contour>
      <point x="-9" y="0" type="line"/>
      <point x="162" y="0" type="line"/>
      <point x="592" y="602" type="line"/>
      <point x="602" y="652" type="line"/>
      <point x="431" y="652" type="line"/>
      <point x="1" y="50" type="line"/>
    </contour>
    <contour>
      <point x="64" y="463" type="line"/>
      <point x="150" y="463" type="line"/>
      <point x="224" y="652" type="line"/>
      <point x="130" y="592" type="line"/>
      <point x="506" y="592" type="line"/>
      <point x="518" y="652" type="line"/>
      <point x="108" y="652" type="line"/>
    </contour>
    <contour>
      <point x="73" y="0" type="line"/>
      <point x="496" y="0" type="line"/>
      <point x="540" y="189" type="line"/>
      <point x="452" y="189" type="line"/>
      <point x="379" y="0" type="line"/>
      <point x="475" y="60" type="line"/>
      <point x="85" y="60" type="line"/>
    </contour>
    <contour>
      <point x="248" y="894" type="line"/>
      <point x="213" y="867" type="line"/>
      <point x="329" y="696" type="line"/>
      <point x="419" y="696" type="line"/>
      <point x="574" y="865" type="line"/>
      <point x="549" y="897" type="line"/>
      <point x="342" y="756" type="line"/>
      <point x="430" y="756" type="line"/>
    </contour>
  </outline>
</glyph>
<glyph name="circumflex" format="2">
  <advance width="371"/>
  <unicode hex="02C6"/>
  <anchor x="256" y="520" name="_aboveLC"/>
  <anchor x="308" y="768" name="aboveLC"/>
  <outline>
    <contour>
      <point x="407" y="544" type="line"/>
      <point x="443" y="572" type="line"/>
      <point x="337" y="757" type="line"/>
      <point x="261" y="757" type="line"/>
      <point x="93" y="580" type="line"/>
      <point x="125" y="542" type="line"/>
      <point x="339" y="689" type="line"/>
      <point x="239" y="689" type="line"/>
    </contour>
  </outline>
</glyph>
<glyph name="caron" format="2">
  <advance width="400"/>
  <unicode hex="02C7"/>
  <anchor x="261" y="520" name="_aboveLC"/>
  <anchor x="314" y="766" name="aboveLC"/>
  <outline>
    <contour>
      <point x="185" y="774" type="line"/>
      <point x="144" y="747" type="line"/>
      <point x="227" y="558" type="line"/>
      <point x="317" y="558" type="line"/>
      <point x="473" y="739" type="line"/>
      <point x="436" y="776" type="line"/>
      <point x="239" y="625" type="line"/>
      <point x="327" y="625" type="line"/>
    </contour>
  </outline>
</glyph>
<glyph name="verticallinemod" format="2">
  <advance width="205"/>
  <unicode hex="02C8"/>
  <outline>
    <contour>
      <point x="117" y="523" type="line"/>
      <point x="241" y="523" type="line"/>
      <point x="285" y="731" type="line"/>
      <point x="149" y="731" type="line"/>
    </contour>
  </outline>
</glyph>
<glyph name="colontriangularmod" format="2">
  <advance width="338"/>
  <unicode hex="02D0"/>
  <outline>
    <contour>
      <point x="110" y="489" type="line"/>
      <point x="175" y="312" type="line"/>
      <point x="191" y="312" type="line"/>
      <point x="330" y="489" type="line"/>
      <point x="325" y="503" type="line"/>
      <point x="121" y="503" type="line"/>
    </contour>
    <contour>
      <point x="10" y="14" type="line"/>
      <point x="15" y="0" type="line"/>
      <point x="219" y="0" type="line"/>
      <point x="230" y="14" type="line"/>
      <point x="165" y="191" type="line"/>
      <point x="149" y="191" type="line"/>
    </contour>
  </outline>
</glyph>
<glyph name="breve" format="2">
  <advance width="400"/>
  <unicode hex="02D8"/>
  <anchor x="274" y="520" name="_aboveLC"/>
  <anchor x="319" y="730" name="aboveLC"/>
  <outline>
    <contour>
      <point x="285" y="558" type="curve" smooth="yes"/>
      <point x="397" y="558"/>
      <point x="450" y="652"/>
      <point x="466" y="717" type="curve"/>
      <point x="421" y="730" type="line"/>
      <point x="393" y="679"/>
      <point x="347" y="659"/>
      <point x="289" y="659" type="curve" smooth="yes"/>
      <point x="237" y="659"/>
      <point x="199" y="683"/>
      <point x="181" y="730" type="curve"/>
      <point x="134" y="717" type="line"/>
      <point x="132" y="622"/>
      <point x="184" y="558"/>
    </contour>
  </outline>
</glyph>
<glyph name="dotaccent" format="2">
  <advance width="400"/>
  <unicode hex="02D9"/>
  <anchor x="274" y="520" name="_aboveLC"/>
  <anchor x="320" y="740" name="aboveLC"/>
  <outline>
    <contour>
      <point x="294" y="581" type="curve" smooth="yes"/>
      <point x="343" y="581"/>
      <point x="387" y="622"/>
      <point x="387" y="675" type="curve" smooth="yes"/>
      <point x="387" y="721"/>
      <point x="359" y="751"/>
      <point x="316" y="751" type="curve" smooth="yes"/>
      <point x="268" y="751"/>
      <point x="224" y="711"/>
      <point x="224" y="654" type="curve" smooth="yes"/>
      <point x="224" y="607"/>
      <point x="255" y="581"/>
    </contour>
  </outline>
</glyph>
<glyph name="ring" format="2">
  <advance width="400"/>
  <unicode hex="02DA"/>
  <anchor x="266" y="524" name="_aboveLC"/>
  <anchor x="326" y="804" name="aboveLC"/>
  <outline>
    <contour>
      <point x="291" y="554" type="curve" smooth="yes"/>
      <point x="361" y="554"/>
      <point x="426" y="602"/>
      <point x="426" y="689" type="curve" smooth="yes"/>
      <point x="426" y="754"/>
      <point x="376" y="794"/>
      <point x="308" y="794" type="curve" smooth="yes"/>
      <point x="235" y="794"/>
      <point x="170" y="743"/>
      <point x="170" y="660" type="curve" smooth="yes"/>
      <point x="170" y="596"/>
      <point x="221" y="554"/>
    </contour>
    <contour>
      <point x="290" y="610" type="curve" smooth="yes"/>
      <point x="259" y="610"/>
      <point x="238" y="634"/>
      <point x="238" y="666" type="curve" smooth="yes"/>
      <point x="238" y="703"/>
      <point x="264" y="738"/>
      <point x="304" y="738" type="curve" smooth="yes"/>
      <point x="341" y="738"/>
      <point x="358" y="710"/>
      <point x="358" y="682" type="curve" smooth="yes"/>
      <point x="358" y="641"/>
      <point x="330" y="610"/>
    </contour>
  </outline>
</glyph>
<glyph name="tilde" format="2">
  <advance width="400"/>
  <unicode hex="02DC"/>
  <anchor x="274" y="520" name="_aboveLC"/>
  <anchor x="322" y="744" name="aboveLC"/>
  <outline>
    <contour>
      <point x="106" y="589" type="curve"/>
      <point x="150" y="569" type="line"/>
      <point x="170" y="605"/>
      <point x="190" y="629"/>
      <point x="218" y="629" type="curve" smooth="yes"/>
      <point x="246" y="629"/>
      <point x="265" y="611"/>
      <point x="283" y="597" type="curve" smooth="yes"/>
      <point x="302" y="582"/>
      <point x="328" y="570"/>
      <point x="362" y="570" type="curve" smooth="yes"/>
      <point x="419" y="570"/>
      <point x="468" y="608"/>
      <point x="496" y="714" type="curve"/>
      <point x="453" y="734" type="line"/>
      <point x="432" y="697"/>
      <point x="412" y="673"/>
      <point x="387" y="673" type="curve" smooth="yes"/>
      <point x="362" y="673"/>
      <point x="344" y="689"/>
      <point x="326" y="703" type="curve" smooth="yes"/>
      <point x="305" y="720"/>
      <point x="284" y="732"/>
      <point x="243" y="732" type="curve" smooth="yes"/>
      <point x="190" y="732"/>
      <point x="135" y="686"/>
    </contour>
  </outline>
</glyph>
<glyph name="hungarumlaut" format="2">
  <advance width="400"/>
  <unicode hex="02DD"/>
  <anchor x="242" y="524" name="_aboveLC"/>
  <anchor x="301" y="799" name="aboveLC"/>
  <outline>
    <contour>
      <point x="123" y="582" type="line"/>
      <point x="165" y="552" type="line"/>
      <point x="275" y="663" type="line" smooth="yes"/>
      <point x="312" y="700"/>
      <point x="327" y="722"/>
      <point x="327" y="750" type="curve" smooth="yes"/>
      <point x="327" y="781"/>
      <point x="308" y="799"/>
      <point x="276" y="799" type="curve" smooth="yes"/>
      <point x="245" y="799"/>
      <point x="222" y="778"/>
      <point x="192" y="719" type="curve" smooth="yes"/>
    </contour>
    <contour>
      <point x="303" y="582" type="line"/>
      <point x="345" y="552" type="line"/>
      <point x="455" y="663" type="line" smooth="yes"/>
      <point x="492" y="700"/>
      <point x="507" y="722"/>
      <point x="507" y="750" type="curve" smooth="yes"/>
      <point x="507" y="781"/>
      <point x="488" y="799"/>
      <point x="456" y="799" type="curve" smooth="yes"/>
      <point x="425" y="799"/>
      <point x="402" y="778"/>
      <point x="372" y="719" type="curve" smooth="yes"/>
    </contour>
  </outline>
</glyph>
<glyph name="circumflexcmb" format="2">
  <unicode hex="0302"/>
  <anchor x="111" y="520" name="_aboveLC"/>
  <anchor x="163" y="768" name="aboveLC"/>
  <outline>
    <contour>
      <point x="262" y="544" type="line"/>
      <point x="298" y="572" type="line"/>
      <point x="192" y="757" type="line"/>
      <point x="116" y="757" type="line"/>
      <point x="-52" y="580" type="line"/>
      <point x="-20" y="542" type="line"/>
      <point x="194" y="689" type="line"/>
      <point x="94" y="689" type="line"/>
    </contour>
  </outline>
</glyph>
<glyph name="dotaccentcmb" format="2">
  <unicode hex="0307"/>
  <anchor x="111" y="520" name="_aboveLC"/>
  <anchor x="157" y="740" name="aboveLC"/>
  <outline>
    <contour>
      <point x="131" y="581" type="curve" smooth="yes"/>
      <point x="180" y="581"/>
      <point x="224" y="622"/>
      <point x="224" y="675" type="curve" smooth="yes"/>
      <point x="224" y="721"/>
      <point x="196" y="751"/>
      <point x="153" y="751" type="curve" smooth="yes"/>
      <point x="105" y="751"/>
      <point x="61" y="711"/>
      <point x="61" y="654" type="curve" smooth="yes"/>
      <point x="61" y="607"/>
      <point x="92" y="581"/>
    </contour>
  </outline>
</glyph>
<glyph name="verticallinebelowcmb" format="2">
  <unicode hex="0329"/>
  <anchor x="-5" y="-22" name="_belowLC"/>
  <anchor x="-60" y="-280" name="belowLC"/>
  <outline>
    <contour>
      <point x="-119" y="-270" type="line"/>
      <point x="17" y="-270" type="line"/>
      <point x="49" y="-62" type="line"/>
      <point x="-75" y="-62" type="line"/>
    </contour>
  </outline>
</glyph>
<glyph name="koppa" format="2">
  <advance width="547"/>
  <unicode hex="03D9"/>
  <anchor x="346" y="520" name="aboveLC"/>
  <outline>
    <contour>
      <point x="185" y="23" type="line"/>
      <point x="103" y="-183" type="line"/>
      <point x="123" y="-196" type="line"/>
      <point x="284" y="-179" type="line"/>
      <point x="310" y="21" type="line"/>
    </contour>
    <component base="omicron"/>
  </outline>
</glyph>
<glyph name="ieukran" format="2">
  <advance width="493"/>
  <unicode hex="0454"/>
  <anchor x="354" y="520" name="aboveLC"/>
  <outline>
    <contour>
      <point x="156" y="231" type="line"/>
      <point x="383" y="223" type="line"/>
      <point x="395" y="283" type="line"/>
      <point x="166" y="273" type="line"/>
    </contour>
    <component base="es"/>
  </outline>
</glyph>
<glyph name="Ghestroke" format="2">
  <advance width="550"/>
  <unicode hex="0492"/>
  <outline>
    <contour>
      <point x="60" y="304" type="line"/>
      <point x="423" y="304" type="line"/>
      <point x="435" y="367" type="line"/>
      <point x="72" y="367" type="line"/>
    </contour>
    <component base="Ghe"/>
  </outline>
</glyph>
<glyph name="Ustraightstroke" format="2">
  <advance width="583"/>
  <unicode hex="04B0"/>
  <anchor x="437" y="682" name="aboveUC"/>
  <outline>
    <contour>
      <point x="527" y="231" type="line"/>
      <point x="539" y="294" type="line"/>
      <point x="100" y="294" type="line"/>
      <point x="88" y="231" type="line"/>
    </contour>
    <component base="Ustraight"/>
  </outline>
</glyph>
<glyph name="ustraightstroke" format="2">
  <advance width="540"/>
  <unicode hex="04B1"/>
  <anchor x="349" y="520" name="aboveLC"/>
  <outline>
    <contour>
      <point x="49" y="0" type="line"/>
      <point x="448" y="0" type="line"/>
      <point x="458" y="57" type="line"/>
      <point x="59" y="57" type="line"/>
    </contour>
    <component base="ustraight"/>
  </outline>
</glyph>
<glyph name="uni2011" format="2">
  <advance width="358"/>
  <unicode hex="2011"/>
  <outline>
    <contour>
      <point x="48" y="205" type="line"/>
      <point x="318" y="205" type="line"/>
      <point x="318" y="305" type="line"/>
      <point x="48" y="305" type="line"/>
    </contour>
  </outline>
</glyph>
<glyph name="figuredash" format="2">
  <advance width="560"/>
  <unicode hex="2012"/>
  <outline>
    <contour>
      <point x="67" y="205" type="line"/>
      <point x="547" y="205" type="line"/>
      <point x="547" y="305" type="line"/>
      <point x="67" y="305" type="line"/>
    </contour>
  </outline>
</glyph>
<glyph name="horizontalbar" format="2">
  <advance width="858"/>
  <unicode hex="2015"/>
  <outline>
    <contour>
      <point x="48" y="205" type="line"/>
      <point x="818" y="205" type="line"/>
      <point x="818" y="305" type="line"/>
      <point x="48" y="305" type="line"/>
    </contour>
  </outline>
</glyph>
<glyph name="quoteright" format="2">
  <advance width="272"/>
  <unicode hex="2019"/>
  <outline>
    <contour>
      <point x="244" y="724" type="curve" smooth="yes"/>
      <point x="194" y="724"/>
      <point x="151" y="687"/>
      <point x="151" y="641" type="curve" smooth="yes"/>
      <point x="151" y="614"/>
      <point x="164" y="590"/>
      <point x="180" y="574" type="curve"/>
      <point x="234" y="521" type="line"/>
      <point x="260" y="609" type="line"/>
      <point x="223" y="544"/>
      <point x="183" y="492"/>
      <point x="123" y="440" type="curve"/>
      <point x="154" y="406" type="line"/>
      <point x="239" y="469"/>
      <point x="320" y="525"/>
      <point x="320" y="632" type="curve" smooth="yes"/>
      <point x="320" y="654"/>
      <point x="316" y="672"/>
      <point x="309" y="689" type="curve"/>
      <point x="297" y="703"/>
      <point x="277" y="724"/>
    </contour>
  </outline>
</glyph>
<glyph name="quotesinglbase" format="2">
  <advance width="291"/>
  <unicode hex="201A"/>
  <outline>
    <contour>
      <point x="137" y="178" type="curve" smooth="yes"/>
      <point x="87" y="178"/>
      <point x="44" y="141"/>
      <point x="44" y="95" type="curve" smooth="yes"/>
      <point x="44" y="68"/>
      <point x="57" y="44"/>
      <point x="73" y="28" type="curve"/>
      <point x="127" y="-25" type="line"/>
      <point x="153" y="63" type="line"/>
      <point x="116" y="-2"/>
      <point x="76" y="-54"/>
      <point x="16" y="-106" type="curve"/>
      <point x="47" y="-140" type="line"/>
      <point x="132" y="-77"/>
      <point x="213" y="-21"/>
      <point x="213" y="86" type="curve" smooth="yes"/>
      <point x="213" y="108"/>
      <point x="209" y="126"/>
      <point x="202" y="143" type="curve"/>
      <point x="190" y="157"/>
      <point x="170" y="178"/>
    </contour>
  </outline>
</glyph>
<glyph name="quotedblleft" format="2">
  <advance width="482"/>
  <unicode hex="201C"/>
  <outline>
    <contour>
      <point x="197" y="419" type="curve" smooth="yes"/>
      <point x="247" y="419"/>
      <point x="290" y="456"/>
      <point x="290" y="502" type="curve" smooth="yes"/>
      <point x="290" y="529"/>
      <point x="277" y="553"/>
      <point x="261" y="569" type="curve"/>
      <point x="207" y="622" type="line"/>
      <point x="181" y="534" type="line"/>
      <point x="218" y="599"/>
      <point x="258" y="651"/>
      <point x="318" y="703" type="curve"/>
      <point x="287" y="737" type="line"/>
      <point x="202" y="674"/>
      <point x="121" y="618"/>
      <point x="121" y="511" type="curve" smooth="yes"/>
      <point x="121" y="489"/>
      <point x="125" y="471"/>
      <point x="132" y="454" type="curve"/>
      <point x="144" y="440"/>
      <point x="164" y="419"/>
    </contour>
    <contour>
      <point x="407" y="419" type="curve" smooth="yes"/>
      <point x="457" y="419"/>
      <point x="500" y="456"/>
      <point x="500" y="502" type="curve" smooth="yes"/>
      <point x="500" y="529"/>
      <point x="487" y="553"/>
      <point x="471" y="569" type="curve"/>
      <point x="417" y="622" type="line"/>
      <point x="391" y="534" type="line"/>
      <point x="428" y="599"/>
      <point x="468" y="651"/>
      <point x="528" y="703" type="curve"/>
      <point x="497" y="737" type="line"/>
      <point x="412" y="674"/>
      <point x="331" y="618"/>
      <point x="331" y="511" type="curve" smooth="yes"/>
      <point x="331" y="489"/>
      <point x="335" y="471"/>
      <point x="342" y="454" type="curve"/>
      <point x="354" y="440"/>
      <point x="374" y="419"/>
    </contour>
  </outline>
</glyph>
<glyph name="quotedblright" format="2">
  <advance width="482"/>
  <unicode hex="201D"/>
  <outline>
    <contour>
      <point x="454" y="724" type="curve" smooth="yes"/>
      <point x="404" y="724"/>
      <point x="361" y="687"/>
      <point x="361" y="641" type="curve" smooth="yes"/>
      <point x="361" y="614"/>
      <point x="374" y="590"/>
      <point x="390" y="574" type="curve"/>
      <point x="444" y="521" type="line"/>
      <point x="470" y="609" type="line"/>
      <point x="433" y="544"/>
      <point x="393" y="492"/>
      <point x="333" y="440" type="curve"/>
      <point x="364" y="406" type="line"/>
      <point x="449" y="469"/>
      <point x="530" y="525"/>
      <point x="530" y="632" type="curve" smooth="yes"/>
      <point x="530" y="654"/>
      <point x="526" y="672"/>
      <point x="519" y="689" type="curve"/>
      <point x="507" y="703"/>
      <point x="487" y="724"/>
    </contour>
    <contour>
      <point x="244" y="724" type="curve" smooth="yes"/>
      <point x="194" y="724"/>
      <point x="151" y="687"/>
      <point x="151" y="641" type="curve" smooth="yes"/>
      <point x="151" y="614"/>
      <point x="164" y="590"/>
      <point x="180" y="574" type="curve"/>
      <point x="234" y="521" type="line"/>
      <point x="260" y="609" type="line"/>
      <point x="223" y="544"/>
      <point x="183" y="492"/>
      <point x="123" y="440" type="curve"/>
      <point x="154" y="406" type="line"/>
      <point x="239" y="469"/>
      <point x="320" y="525"/>
      <point x="320" y="632" type="curve" smooth="yes"/>
      <point x="320" y="654"/>
      <point x="316" y="672"/>
      <point x="309" y="689" type="curve"/>
      <point x="297" y="703"/>
      <point x="277" y="724"/>
    </contour>
  </outline>
</glyph>
<glyph name="quotedblbase" format="2">
  <advance width="501"/>
  <unicode hex="201E"/>
  <outline>
    <contour>
      <point x="347" y="178" type="curve" smooth="yes"/>
      <point x="297" y="178"/>
      <point x="254" y="141"/>
      <point x="254" y="95" type="curve" smooth="yes"/>
      <point x="254" y="68"/>
      <point x="267" y="44"/>
      <point x="283" y="28" type="curve"/>
      <point x="337" y="-25" type="line"/>
      <point x="363" y="63" type="line"/>
      <point x="326" y="-2"/>
      <point x="286" y="-54"/>
      <point x="226" y="-106" type="curve"/>
      <point x="257" y="-140" type="line"/>
      <point x="342" y="-77"/>
      <point x="423" y="-21"/>
      <point x="423" y="86" type="curve" smooth="yes"/>
      <point x="423" y="108"/>
      <point x="419" y="126"/>
      <point x="412" y="143" type="curve"/>
      <point x="400" y="157"/>
      <point x="380" y="178"/>
    </contour>
    <contour>
      <point x="137" y="178" type="curve" smooth="yes"/>
      <point x="87" y="178"/>
      <point x="44" y="141"/>
      <point x="44" y="95" type="curve" smooth="yes"/>
      <point x="44" y="68"/>
      <point x="57" y="44"/>
      <point x="73" y="28" type="curve"/>
      <point x="127" y="-25" type="line"/>
      <point x="153" y="63" type="line"/>
      <point x="116" y="-2"/>
      <point x="76" y="-54"/>
      <point x="16" y="-106" type="curve"/>
      <point x="47" y="-140" type="line"/>
      <point x="132" y="-77"/>
      <point x="213" y="-21"/>
      <point x="213" y="86" type="curve" smooth="yes"/>
      <point x="213" y="108"/>
      <point x="209" y="126"/>
      <point x="202" y="143" type="curve"/>
      <point x="190" y="157"/>
      <point x="170" y="178"/>
    </contour>
  </outline>
</glyph>
<glyph name="bullet" format="2">
  <advance width="340"/>
  <unicode hex="2022"/>
  <outline>
    <contour>
      <point x="192" y="198" type="curve" smooth="yes"/>
      <point x="276" y="198"/>
      <point x="344" y="261"/>
      <point x="344" y="346" type="curve" smooth="yes"/>
      <point x="344" y="413"/>
      <point x="291" y="471"/>
      <point x="216" y="471" type="curve" smooth="yes"/>
      <point x="136" y="471"/>
      <point x="64" y="405"/>
      <point x="64" y="320" type="curve" smooth="yes"/>
      <point x="64" y="256"/>
      <point x="116" y="198"/>
    </contour>
  </outline>
</glyph>
<glyph name="ellipsis" format="2">
  <advance width="950"/>
  <unicode hex="2026"/>
  <outline>
    <contour>
      <point x="132" y="-16" type="curve" smooth="yes"/>
      <point x="189" y="-16"/>
      <point x="240" y="29"/>
      <point x="240" y="89" type="curve" smooth="yes"/>
      <point x="240" y="137"/>
      <point x="202" y="178"/>
      <point x="149" y="178" type="curve" smooth="yes"/>
      <point x="92" y="178"/>
      <point x="41" y="131"/>
      <point x="41" y="71" type="curve" smooth="yes"/>
      <point x="41" y="25"/>
      <point x="78" y="-16"/>
    </contour>
    <contour>
      <point x="450" y="-16" type="curve" smooth="yes"/>
      <point x="507" y="-16"/>
      <point x="558" y="29"/>
      <point x="558" y="89" type="curve" smooth="yes"/>
      <point x="558" y="137"/>
      <point x="520" y="178"/>
      <point x="467" y="178" type="curve" smooth="yes"/>
      <point x="410" y="178"/>
      <point x="359" y="131"/>
      <point x="359" y="71" type="curve" smooth="yes"/>
      <point x="359" y="25"/>
      <point x="396" y="-16"/>
    </contour>
    <contour>
      <point x="768" y="-16" type="curve" smooth="yes"/>
      <point x="825" y="-16"/>
      <point x="876" y="29"/>
      <point x="876" y="89" type="curve" smooth="yes"/>
      <point x="876" y="137"/>
      <point x="838" y="178"/>
      <point x="785" y="178" type="curve" smooth="yes"/>
      <point x="728" y="178"/>
      <point x="677" y="131"/>
      <point x="677" y="71" type="curve" smooth="yes"/>
      <point x="677" y="25"/>
      <point x="714" y="-16"/>
    </contour>
  </outline>
</glyph>
<glyph name="uni2027" format="2">
  <advance width="314"/>
  <unicode hex="2027"/>
  <outline>
    <contour>
      <point x="147" y="149" type="curve" smooth="yes"/>
      <point x="204" y="149"/>
      <point x="255" y="194"/>
      <point x="255" y="254" type="curve" smooth="yes"/>
      <point x="255" y="302"/>
      <point x="217" y="343"/>
      <point x="164" y="343" type="curve" smooth="yes"/>
      <point x="107" y="343"/>
      <point x="56" y="296"/>
      <point x="56" y="236" type="curve" smooth="yes"/>
      <point x="56" y="190"/>
      <point x="93" y="149"/>
    </contour>
  </outline>
</glyph>
<glyph name="perthousand" format="2">
  <advance width="1252"/>
  <unicode hex="2030"/>
  <outline>
    <contour>
      <point x="245" y="-23" type="line"/>
      <point x="724" y="604" type="line"/>
      <point x="673" y="643" type="line"/>
      <point x="194" y="16" type="line"/>
    </contour>
    <contour>
      <point x="214" y="234" type="curve" smooth="yes"/>
      <point x="323" y="234"/>
      <point x="416" y="328"/>
      <point x="416" y="494" type="curve" smooth="yes"/>
      <point x="416" y="586"/>
      <point x="374" y="640"/>
      <point x="290" y="640" type="curve" smooth="yes"/>
      <point x="175" y="640"/>
      <point x="79" y="533"/>
      <point x="79" y="383" type="curve" smooth="yes"/>
      <point x="79" y="275"/>
      <point x="137" y="234"/>
    </contour>
    <contour>
      <point x="212" y="274" type="curve" smooth="yes"/>
      <point x="202" y="274"/>
      <point x="186" y="280"/>
      <point x="186" y="332" type="curve" smooth="yes"/>
      <point x="186" y="451"/>
      <point x="238" y="600"/>
      <point x="285" y="600" type="curve" smooth="yes"/>
      <point x="295" y="600"/>
      <point x="309" y="593"/>
      <point x="309" y="544" type="curve" smooth="yes"/>
      <point x="309" y="455"/>
      <point x="262" y="274"/>
    </contour>
    <contour>
      <point x="644" y="-9" type="curve" smooth="yes"/>
      <point x="753" y="-9"/>
      <point x="846" y="85"/>
      <point x="846" y="251" type="curve" smooth="yes"/>
      <point x="846" y="343"/>
      <point x="804" y="397"/>
      <point x="720" y="397" type="curve" smooth="yes"/>
      <point x="605" y="397"/>
      <point x="509" y="290"/>
      <point x="509" y="140" type="curve" smooth="yes"/>
      <point x="509" y="32"/>
      <point x="567" y="-9"/>
    </contour>
    <contour>
      <point x="642" y="31" type="curve" smooth="yes"/>
      <point x="632" y="31"/>
      <point x="616" y="37"/>
      <point x="616" y="89" type="curve" smooth="yes"/>
      <point x="616" y="208"/>
      <point x="668" y="357"/>
      <point x="715" y="357" type="curve" smooth="yes"/>
      <point x="725" y="357"/>
      <point x="739" y="350"/>
      <point x="739" y="301" type="curve" smooth="yes"/>
      <point x="739" y="212"/>
      <point x="692" y="31"/>
    </contour>
    <contour>
      <point x="1016" y="-9" type="curve" smooth="yes"/>
      <point x="1125" y="-9"/>
      <point x="1218" y="85"/>
      <point x="1218" y="251" type="curve" smooth="yes"/>
      <point x="1218" y="343"/>
      <point x="1176" y="397"/>
      <point x="1092" y="397" type="curve" smooth="yes"/>
      <point x="977" y="397"/>
      <point x="881" y="290"/>
      <point x="881" y="140" type="curve" smooth="yes"/>
      <point x="881" y="32"/>
      <point x="939" y="-9"/>
    </contour>
    <contour>
      <point x="1014" y="31" type="curve" smooth="yes"/>
      <point x="1004" y="31"/>
      <point x="988" y="37"/>
      <point x="988" y="89" type="curve" smooth="yes"/>
      <point x="988" y="208"/>
      <point x="1040" y="357"/>
      <point x="1087" y="357" type="curve" smooth="yes"/>
      <point x="1097" y="357"/>
      <point x="1111" y="350"/>
      <point x="1111" y="301" type="curve" smooth="yes"/>
      <point x="1111" y="212"/>
      <point x="1064" y="31"/>
    </contour>
  </outline>
</glyph>
<glyph name="guilsinglleft" format="2">
  <advance width="393"/>
  <unicode hex="2039"/>
  <outline>
    <contour>
      <point x="285" y="22" type="line"/>
      <point x="331" y="61" type="line"/>
      <point x="158" y="297" type="line"/>
      <point x="141" y="208" type="line"/>
      <point x="382" y="444" type="line"/>
      <point x="350" y="483" type="line"/>
      <point x="79" y="288" type="line"/>
      <point x="66" y="217" type="line"/>
    </contour>
  </outline>
</glyph>
<glyph name="guilsinglright" format="2">
  <advance width="393"/>
  <unicode hex="203A"/>
  <outline>
    <contour>
      <point x="141" y="483" type="line"/>
      <point x="95" y="444" type="line"/>
      <point x="268" y="208" type="line"/>
      <point x="285" y="297" type="line"/>
      <point x="44" y="61" type="line"/>
      <point x="76" y="22" type="line"/>
      <point x="347" y="217" type="line"/>
      <point x="360" y="288" type="line"/>
    </contour>
  </outline>
</glyph>
<glyph name="approxequal" format="2">
  <advance width="550"/>
  <unicode hex="2248"/>
  <outline>
    <contour>
      <point x="325" y="259" type="curve" smooth="yes"/>
      <point x="279" y="295"/>
      <point x="244" y="314"/>
      <point x="207" y="314" type="curve" smooth="yes"/>
      <point x="136" y="314"/>
      <point x="76" y="270"/>
      <point x="76" y="132" type="curve"/>
      <point x="158" y="125" type="line"/>
      <point x="162" y="194"/>
      <point x="179" y="216"/>
      <point x="204" y="216" type="curve" smooth="yes"/>
      <point x="219" y="216"/>
      <point x="229" y="208"/>
      <point x="277" y="171" type="curve" smooth="yes"/>
      <point x="323" y="135"/>
      <point x="358" y="116"/>
      <point x="394" y="116" type="curve" smooth="yes"/>
      <point x="463" y="116"/>
      <point x="526" y="160"/>
      <point x="526" y="298" type="curve"/>
      <point x="444" y="305" type="line"/>
      <point x="440" y="236"/>
      <point x="423" y="214"/>
      <point x="399" y="214" type="curve" smooth="yes"/>
      <point x="383" y="214"/>
      <point x="373" y="222"/>
    </contour>
    <contour>
      <point x="325" y="499" type="curve" smooth="yes"/>
      <point x="279" y="535"/>
      <point x="244" y="554"/>
      <point x="207" y="554" type="curve" smooth="yes"/>
      <point x="136" y="554"/>
      <point x="76" y="510"/>
      <point x="76" y="372" type="curve"/>
      <point x="158" y="365" type="line"/>
      <point x="162" y="434"/>
      <point x="179" y="456"/>
      <point x="204" y="456" type="curve" smooth="yes"/>
      <point x="219" y="456"/>
      <point x="229" y="448"/>
      <point x="277" y="411" type="curve" smooth="yes"/>
      <point x="323" y="375"/>
      <point x="358" y="356"/>
      <point x="394" y="356" type="curve" smooth="yes"/>
      <point x="463" y="356"/>
      <point x="526" y="400"/>
      <point x="526" y="538" type="curve"/>
      <point x="444" y="545" type="line"/>
      <point x="440" y="476"/>
      <point x="423" y="454"/>
      <point x="399" y="454" type="curve" smooth="yes"/>
      <point x="383" y="454"/>
      <point x="373" y="462"/>
    </contour>
  </outline>
</glyph>
<glyph name="notequal" format="2">
  <advance width="550"/>
  <unicode hex="2260"/>
  <outline>
    <contour>
      <point x="161" y="20" type="line"/>
      <point x="481" y="587" type="line"/>
      <point x="425" y="620" type="line"/>
      <point x="105" y="53" type="line"/>
    </contour>
    <contour>
      <point x="523" y="166" type="line"/>
      <point x="523" y="260" type="line"/>
      <point x="63" y="260" type="line"/>
      <point x="63" y="166" type="line"/>
    </contour>
    <contour>
      <point x="523" y="380" type="line"/>
      <point x="523" y="474" type="line"/>
      <point x="63" y="474" type="line"/>
      <point x="63" y="380" type="line"/>
    </contour>
  </outline>
</glyph>
